<svg width="23" height="23" viewBox="0 0 23 23" fill="none" xmlns="http://www.w3.org/2000/svg">
<path d="M11.4482 20.1116C16.0046 20.1116 19.6982 16.4179 19.6982 11.8616C19.6982 7.30522 16.0046 3.61157 11.4482 3.61157C6.89189 3.61157 3.19824 7.30522 3.19824 11.8616C3.19824 16.4179 6.89189 20.1116 11.4482 20.1116Z" stroke="#272727" stroke-linecap="round" stroke-linejoin="round"/>
<path d="M3.6709 9.11157H19.2256" stroke="#272727" stroke-linecap="round" stroke-linejoin="round"/>
<path d="M3.6709 14.6116H19.2256" stroke="#272727" stroke-linecap="round" stroke-linejoin="round"/>
<path d="M11.4482 19.8881C13.3467 19.8881 14.8857 16.2945 14.8857 11.8615C14.8857 7.42858 13.3467 3.83496 11.4482 3.83496C9.54976 3.83496 8.01074 7.42858 8.01074 11.8615C8.01074 16.2945 9.54976 19.8881 11.4482 19.8881Z" stroke="#272727" stroke-linecap="round" stroke-linejoin="round"/>
</svg>
