<svg width="504" height="502" viewBox="0 0 504 502" fill="none" xmlns="http://www.w3.org/2000/svg">
<rect x="114.571" y="78.0977" width="353.608" height="423.101" rx="15.5808" fill="#EFF3FC"/>
<mask id="mask0_19_3196" style="mask-type:luminance" maskUnits="userSpaceOnUse" x="114" y="78" width="355" height="424">
<rect x="114.571" y="78.0977" width="353.608" height="423.101" rx="15.5808" fill="white"/>
</mask>
<g mask="url(#mask0_19_3196)">
<path d="M94.5678 437.417C97.9674 343.928 60.5717 512.285 324.041 501.198C587.511 490.111 72.4704 561.503 72.4704 561.503L43.5737 474.884" fill="#D6DCF2"/>
</g>
<rect x="114.571" y="78.0977" width="353.608" height="423.101" rx="15.5808" stroke="#190000" stroke-width="1.1" stroke-linecap="round" stroke-linejoin="round"/>
<rect x="140.989" y="128.226" width="300.77" height="189.675" rx="10.5274" fill="#9879C9"/>
<mask id="mask1_19_3196" style="mask-type:luminance" maskUnits="userSpaceOnUse" x="140" y="128" width="302" height="190">
<rect x="140.991" y="128.226" width="300.77" height="189.675" rx="10.5274" fill="white"/>
</mask>
<g mask="url(#mask1_19_3196)">
<path d="M75.4961 399.25L474.713 87.0339V357.409L242.155 409.259" fill="#6F4EB9"/>
</g>
<rect x="140.989" y="128.226" width="300.77" height="189.675" rx="10.5274" stroke="#190000" stroke-width="1.1" stroke-linecap="round" stroke-linejoin="round"/>
<path d="M271.522 165.354L194.116 278.556H348.928L271.522 165.354Z" fill="#EFF3FC" stroke="#190000" stroke-width="1.1" stroke-linecap="round" stroke-linejoin="round"/>
<path d="M338.008 203.747L286.854 278.556H389.161L338.008 203.747Z" fill="#EFF3FC" stroke="#190000" stroke-width="1.1" stroke-linecap="round" stroke-linejoin="round"/>
<circle cx="331.347" cy="171.051" r="17.5087" fill="#FBD164" stroke="#190000" stroke-width="1.1" stroke-linecap="round" stroke-linejoin="round"/>
<rect x="138.512" y="352.448" width="207.287" height="15.2417" rx="4.08624" fill="#D6DCF2" stroke="#190000" stroke-width="1.1" stroke-linecap="round" stroke-linejoin="round"/>
<path d="M146.232 402.238H375.929C380.137 402.238 383.549 405.65 383.549 409.859C383.549 414.068 380.137 417.479 375.928 417.479H146.232C142.023 417.479 138.611 414.067 138.611 409.859C138.611 405.65 142.023 402.238 146.232 402.238L146.232 402.238Z" fill="#D6DCF2" stroke="#190000" stroke-width="1.1" stroke-linecap="round" stroke-linejoin="round"/>
<path d="M414.117 271.97C414.203 274.661 412.925 277.213 410.72 278.757" stroke="#6F4EB9" stroke-width="1.1" stroke-linecap="round" stroke-linejoin="round"/>
<path d="M203.458 155.389L194.363 162.148" stroke="#6F4EB9" stroke-width="1.1" stroke-linecap="round" stroke-linejoin="round"/>
<path d="M399.428 465.823L376.762 474.884" stroke="#D6DCF2" stroke-width="1.1" stroke-linecap="round" stroke-linejoin="round"/>
<path d="M425.69 83.0655C427.315 74.4644 423.485 66.2788 416.856 62.8998C416.69 62.8329 416.517 62.7865 416.341 62.7616L380.553 55.9995C380.416 55.9735 380.468 55.2635 380.521 55.1452C388.861 39.4618 389.257 23.3557 389.255 22.8238C389.249 22.8127 389.248 22.7994 389.251 22.7872C391.178 12.5922 385.455 2.95998 376.473 1.26287C368.143 -0.311189 359.966 5.47809 357.253 14.4304L357.242 14.4284C348.112 44.7335 325.396 49.9988 320.355 50.8145C320.326 50.8139 320.296 50.8083 320.268 50.798C319.987 50.717 319.7 50.6627 319.409 50.6357L297.4 46.4771C294.142 45.8617 290.95 48.3147 290.253 52.001L275.762 128.696C275.062 132.397 277.191 135.575 280.448 136.19L381.866 155.353C382.439 155.493 383.019 155.603 383.604 155.682C394.331 157.709 399.939 148.373 399.939 148.373C401.595 146.048 423.955 88.2991 423.955 88.2991L423.964 88.301C424.328 87.5252 424.642 86.7279 424.907 85.9134L425.008 85.6508L425.011 85.6314C425.292 84.7914 425.518 83.9344 425.69 83.0656" fill="#FBD164"/>
<mask id="mask2_19_3196" style="mask-type:luminance" maskUnits="userSpaceOnUse" x="275" y="1" width="152" height="155">
<path fill-rule="evenodd" clip-rule="evenodd" d="M425.689 83.0655C427.314 74.4644 423.484 66.2788 416.856 62.8998C416.69 62.8329 416.517 62.7865 416.34 62.7616L380.553 55.9995C380.415 55.9735 380.468 55.2635 380.52 55.1452C388.861 39.4618 389.257 23.3557 389.255 22.8238C389.248 22.8127 389.247 22.7994 389.251 22.7872C391.177 12.5922 385.454 2.95998 376.473 1.26287C368.143 -0.311189 359.965 5.47809 357.252 14.4304L357.242 14.4284C348.112 44.7335 325.395 49.9988 320.355 50.8145C320.325 50.8139 320.295 50.8083 320.267 50.798C319.987 50.717 319.699 50.6627 319.408 50.6357L297.399 46.4771C294.142 45.8617 290.949 48.3147 290.253 52.001L275.761 128.696C275.062 132.397 277.19 135.575 280.448 136.19L381.865 155.353C382.438 155.493 383.019 155.603 383.603 155.682C394.331 157.709 399.939 148.373 399.939 148.373C401.595 146.048 423.954 88.2991 423.954 88.2991L423.964 88.301C424.327 87.5252 424.642 86.7279 424.907 85.9134L425.007 85.6508L425.011 85.6314C425.291 84.7914 425.518 83.9344 425.689 83.0656" fill="white"/>
</mask>
<g mask="url(#mask2_19_3196)">
<path d="M307.755 80.7461C324.666 70.937 298.267 141.827 357.834 156.21C417.401 170.593 247.596 159.726 247.596 159.726L275.751 104.815" fill="#F9B964"/>
<path d="M393.841 31.9866L380.553 55.9994C380.553 55.9994 379.505 60.5436 370.908 65.6432C362.312 70.7427 416.856 62.8997 416.856 62.8997L406.513 48.608" fill="#F9B964"/>
</g>
<path d="M425.69 83.0655C427.315 74.4644 423.485 66.2788 416.856 62.8998C416.69 62.8329 416.517 62.7865 416.341 62.7616L380.553 55.9995C380.416 55.9735 380.468 55.2635 380.521 55.1452C388.861 39.4618 389.257 23.3557 389.255 22.8238C389.249 22.8127 389.248 22.7994 389.251 22.7872C391.178 12.5922 385.455 2.95998 376.473 1.26287C368.143 -0.311189 359.966 5.47809 357.253 14.4304L357.242 14.4284C348.112 44.7335 325.396 49.9988 320.355 50.8145C320.326 50.8139 320.296 50.8083 320.268 50.798C319.987 50.717 319.7 50.6627 319.409 50.6357L297.4 46.4771C294.142 45.8617 290.95 48.3147 290.253 52.001L275.762 128.696C275.062 132.397 277.191 135.575 280.448 136.19L381.866 155.353C382.439 155.493 383.019 155.603 383.604 155.682C394.331 157.709 399.939 148.373 399.939 148.373C401.595 146.048 423.955 88.2991 423.955 88.2991L423.964 88.301C424.328 87.5252 424.642 86.7279 424.907 85.9134L425.008 85.6508L425.011 85.6314C425.292 84.7914 425.518 83.9344 425.69 83.0656" stroke="#190000" stroke-width="1.1" stroke-linecap="round" stroke-linejoin="round"/>
<rect x="271.986" y="30.6575" width="52.4063" height="107.43" rx="3.02541" transform="rotate(10.7 271.986 30.6575)" fill="#FB81B2"/>
<mask id="mask3_19_3196" style="mask-type:luminance" maskUnits="userSpaceOnUse" x="252" y="31" width="71" height="115">
<rect x="271.984" y="30.6575" width="52.4063" height="107.43" rx="3.02541" transform="rotate(10.7 271.984 30.6575)" fill="white"/>
</mask>
<g mask="url(#mask3_19_3196)">
<path d="M258.887 88.3966C262.851 42.2117 277.059 30.8245 303.106 36.5386C329.153 42.2528 251.452 15.9451 251.452 15.9451L242.489 31.4749" fill="#E55A61"/>
</g>
<rect x="271.986" y="30.6575" width="52.4063" height="107.43" rx="3.02541" transform="rotate(10.7 271.986 30.6575)" stroke="#190000" stroke-width="1.1" stroke-linecap="round" stroke-linejoin="round"/>
<circle cx="292.73" cy="61.9894" r="8.73277" fill="#EFF3FC" stroke="#190000" stroke-width="1.1" stroke-linecap="round" stroke-linejoin="round"/>
<path d="M364.342 67.9325C373.08 68.9112 381.686 52.7192 381.686 52.7192L364.342 67.9325Z" fill="#FBD164"/>
<path d="M364.342 67.9325C373.08 68.9112 381.686 52.7192 381.686 52.7192" stroke="#190000" stroke-width="1.1" stroke-linecap="round" stroke-linejoin="round"/>
<path d="M393.708 88.4968C390.758 93.7622 386.625 98.27 381.634 101.664" stroke="#D89D35" stroke-width="1.1" stroke-linecap="round" stroke-linejoin="round"/>
<path d="M287.739 106.329C285.677 111.638 285.822 117.55 288.142 122.751" stroke="#E55A61" stroke-width="1.1" stroke-linecap="round" stroke-linejoin="round"/>
<path d="M481.432 186.622C472.014 177.204 457.148 176.401 446.765 184.155C436.497 176.486 421.844 177.187 412.412 186.312C401.738 196.64 402.074 214.164 412.577 224.666L440.264 252.353C443.86 255.929 449.669 255.929 453.266 252.353L481.432 224.187C491.763 213.857 491.763 196.952 481.432 186.622Z" fill="#ED707B" stroke="#190000" stroke-width="1.1" stroke-linecap="round" stroke-linejoin="round"/>
<path d="M238.471 337.776C230.01 329.315 216.653 328.593 207.324 335.56C198.099 328.67 184.933 329.299 176.459 337.498C166.869 346.777 167.171 362.522 176.607 371.958L201.483 396.834C204.715 400.046 209.934 400.046 213.165 396.834L238.471 371.528C247.753 362.246 247.753 347.058 238.471 337.776H238.471Z" fill="#FBD164" stroke="#190000" stroke-width="1.1" stroke-linecap="round" stroke-linejoin="round"/>
<path d="M490.575 307.91H253.581C246.9 307.91 241.485 313.325 241.485 320.006V428.48C241.485 435.16 246.9 440.576 253.581 440.576H408.506C414.75 448.459 421.873 457.439 427.05 463.962C429.443 466.977 434.265 465.247 434.265 461.398V440.576H490.575C497.255 440.576 502.671 435.16 502.671 428.48V320.006C502.671 313.325 497.255 307.91 490.575 307.91Z" fill="#409159"/>
<mask id="mask4_19_3196" style="mask-type:luminance" maskUnits="userSpaceOnUse" x="241" y="307" width="262" height="159">
<path fill-rule="evenodd" clip-rule="evenodd" d="M490.577 307.91H253.583C246.903 307.91 241.487 313.325 241.487 320.006V428.48C241.487 435.16 246.903 440.576 253.583 440.576H408.508C414.752 448.459 421.875 457.439 427.053 463.962C429.445 466.977 434.268 465.247 434.268 461.398V440.576H490.577C497.258 440.576 502.673 435.16 502.673 428.48V320.006C502.673 313.325 497.258 307.91 490.577 307.91Z" fill="white"/>
</mask>
<g mask="url(#mask4_19_3196)">
<path d="M490.576 307.91C490.523 463.97 224.523 439.903 224.523 439.903L344.728 522.236L528.523 527.303L519.656 307.91L479.123 296.77" fill="#357C49"/>
</g>
<path fill-rule="evenodd" clip-rule="evenodd" d="M490.575 307.91H253.581C246.9 307.91 241.485 313.325 241.485 320.006V428.48C241.485 435.16 246.9 440.576 253.581 440.576H408.506C414.75 448.459 421.873 457.439 427.05 463.962C429.443 466.977 434.265 465.247 434.265 461.398V440.576H490.575C497.255 440.576 502.671 435.16 502.671 428.48V320.006C502.671 313.325 497.255 307.91 490.575 307.91Z" stroke="#190000" stroke-width="1.1" stroke-linecap="round" stroke-linejoin="round"/>
<circle cx="294.219" cy="370.615" r="12.0819" fill="white" stroke="#190000" stroke-width="1.1" stroke-linecap="round" stroke-linejoin="round"/>
<circle cx="344.726" cy="370.615" r="12.0819" fill="white" stroke="#190000" stroke-width="1.1" stroke-linecap="round" stroke-linejoin="round"/>
<circle cx="395.234" cy="370.615" r="12.0819" fill="white" stroke="#190000" stroke-width="1.1" stroke-linecap="round" stroke-linejoin="round"/>
<circle cx="445.742" cy="370.615" r="12.0819" fill="white" stroke="#190000" stroke-width="1.1" stroke-linecap="round" stroke-linejoin="round"/>
<path d="M305.72 320.793L294.743 327.549" stroke="#75AA3C" stroke-width="1.1" stroke-linecap="round" stroke-linejoin="round"/>
<path d="M474.214 429.205L467.172 432.726" stroke="#75AA3C" stroke-width="1.1" stroke-linecap="round" stroke-linejoin="round"/>
<path d="M69.85 487.596L79.0379 486.921C79.0379 486.921 100.895 377.784 100.528 364.109L107.548 296.577L76.2526 295.735L58.8857 484.955L69.85 487.596Z" fill="#FACCC4"/>
<mask id="mask5_19_3196" style="mask-type:luminance" maskUnits="userSpaceOnUse" x="58" y="295" width="50" height="193">
<path fill-rule="evenodd" clip-rule="evenodd" d="M69.852 487.596L79.0399 486.921C79.0399 486.921 100.897 377.784 100.53 364.109L107.55 296.577L76.2546 295.735L58.8877 484.955L69.852 487.596Z" fill="white"/>
</mask>
<g mask="url(#mask5_19_3196)">
<path d="M58.8877 451.6C81.0996 471.154 93.468 471.154 95.9359 470.015C98.4039 468.876 75.4327 451.6 75.4327 451.6H58.8877Z" fill="#ED707B"/>
</g>
<path fill-rule="evenodd" clip-rule="evenodd" d="M69.85 487.596L79.0379 486.921C79.0379 486.921 100.895 377.784 100.528 364.109L107.548 296.577L76.2526 295.735L58.8857 484.955L69.85 487.596Z" stroke="#190000" stroke-width="1.1" stroke-linecap="round" stroke-linejoin="round"/>
<path d="M100.529 332.889C100.529 332.889 102.256 353.678 100.529 361.936L16.4019 338.703C1.02999 334.458 -3.83686 315.069 7.70812 304.067L71.8246 235.746L72.8912 227.525L110.562 256.875L92.5403 291.598L48.686 313.81L100.529 332.889Z" fill="#D3575E"/>
<mask id="mask6_19_3196" style="mask-type:luminance" maskUnits="userSpaceOnUse" x="1" y="227" width="110" height="135">
<path fill-rule="evenodd" clip-rule="evenodd" d="M100.529 332.889C100.529 332.889 102.256 353.678 100.529 361.936L16.4019 338.703C1.02999 334.458 -3.83686 315.069 7.70812 304.067L71.8246 235.746L72.8912 227.525L110.562 256.875L92.5403 291.598L48.686 313.81L100.529 332.889Z" fill="white"/>
</mask>
<g mask="url(#mask6_19_3196)">
<path d="M23.1265 361.596C73.5147 306.046 91.9705 296.578 91.9705 296.578L120.635 310.186L63.3175 366.813L23.1265 361.596Z" fill="white" stroke="#190000" stroke-width="1.1" stroke-linecap="round" stroke-linejoin="round"/>
<path d="M80.8526 263.149L26.4912 309.662C24.7223 311.357 23.962 313.85 24.484 316.243C25.006 318.637 26.7351 320.587 29.0491 321.391L52.2389 329.453" stroke="#90282A" stroke-width="1.1" stroke-linecap="round" stroke-linejoin="round"/>
</g>
<path fill-rule="evenodd" clip-rule="evenodd" d="M100.529 332.889C100.529 332.889 102.256 353.678 100.529 361.936L16.4019 338.703C1.02999 334.458 -3.83686 315.069 7.70812 304.067L71.8246 235.746L72.8912 227.525L110.562 256.875L92.5403 291.598L48.686 313.81L100.529 332.889Z" stroke="#190000" stroke-width="1.1" stroke-linecap="round" stroke-linejoin="round"/>
<path d="M95.0264 331.695L129.199 345.893L123.186 366.421L95.0264 357.134V331.695Z" fill="#FACCC4"/>
<mask id="mask7_19_3196" style="mask-type:luminance" maskUnits="userSpaceOnUse" x="95" y="331" width="35" height="36">
<path fill-rule="evenodd" clip-rule="evenodd" d="M95.0273 331.695L129.2 345.893L123.187 366.421L95.0273 357.134V331.695Z" fill="white"/>
</mask>
<g mask="url(#mask7_19_3196)">
<path d="M110.564 325.258C107.707 366.265 106.168 374.792 96.3165 366.421C86.4648 358.051 86.3496 338.53 86.3496 338.53L107.551 322.41" fill="#ED707B"/>
</g>
<path fill-rule="evenodd" clip-rule="evenodd" d="M95.0264 331.695L129.199 345.893L123.186 366.421L95.0264 357.134V331.695V331.695Z" stroke="#190000" stroke-width="1.1" stroke-linecap="round" stroke-linejoin="round"/>
<path d="M134.611 407.646C122.171 412.487 134.611 371.588 114.103 366.047L115.53 338.53L134.325 344.605L134.611 407.646Z" fill="#4B4D5C" stroke="#190000" stroke-width="1.1" stroke-linecap="round" stroke-linejoin="round"/>
<path d="M17.4257 498.319C12.585 485.878 53.4653 496.032 59.0066 475.524L81.0477 476.874L78.8451 498.319L17.4257 498.319Z" fill="#4B4D5C" stroke="#190000" stroke-width="1.1" stroke-linecap="round" stroke-linejoin="round"/>
<path d="M72.4145 276.861L57.1099 454.444C57.1099 454.444 89.6715 467.482 93.4645 458.958L104.134 354.225L126.566 238.866L76.2549 232.3" fill="#D3575E"/>
<mask id="mask8_19_3196" style="mask-type:luminance" maskUnits="userSpaceOnUse" x="57" y="232" width="70" height="230">
<path fill-rule="evenodd" clip-rule="evenodd" d="M72.4111 276.861L57.1064 454.444C57.1064 454.444 89.6681 467.482 93.4611 458.958L104.13 354.225L126.562 238.866L76.2515 232.3" fill="white"/>
</mask>
<g mask="url(#mask8_19_3196)">
<path d="M64.4916 211.697C52.2369 259.178 152.325 238.438 114.102 315.87C87.5448 369.668 145.938 259.302 145.938 259.302L146.007 231.402L46.1948 215.282" fill="#BA424D"/>
<path d="M77.9024 425.642L73.5 467.821" stroke="#90282A" stroke-width="1.1" stroke-linecap="round" stroke-linejoin="round"/>
<path d="M101.299 263.186L82.2534 383.946" stroke="#90282A" stroke-width="1.1" stroke-linecap="round" stroke-linejoin="round"/>
<path d="M98.8319 238.766C90.5385 263.466 109.599 271.488 119.521 271.066" stroke="#90282A" stroke-width="1.1" stroke-linecap="round" stroke-linejoin="round"/>
<path d="M110.793 285.699C104.886 280.372 107.1 273.649 109.241 267.147C112.501 257.257 115.578 247.915 95.0259 240.364L97.6616 236.324C122.56 245.47 118.404 258.089 115.066 268.227C113.118 274.138 111.435 279.244 115.403 282.822L110.793 285.699Z" fill="white"/>
<mask id="mask9_19_3196" style="mask-type:luminance" maskUnits="userSpaceOnUse" x="95" y="236" width="23" height="50">
<path fill-rule="evenodd" clip-rule="evenodd" d="M110.793 285.699C104.886 280.372 107.1 273.649 109.241 267.147C112.501 257.257 115.578 247.915 95.0259 240.364L97.6616 236.324C122.56 245.47 118.404 258.089 115.066 268.227C113.118 274.138 111.435 279.244 115.403 282.822L110.793 285.699Z" fill="white"/>
</mask>
<g mask="url(#mask9_19_3196)">
<path d="M104.639 281.833L114.819 277.505L119.734 285.527L110.562 288.588L104.006 283.31" fill="#4B4D5C"/>
<path d="M104.639 281.833L114.819 277.505L119.734 285.527L110.562 288.588L104.006 283.31" stroke="#190000" stroke-width="1.1" stroke-linecap="round" stroke-linejoin="round"/>
</g>
<path fill-rule="evenodd" clip-rule="evenodd" d="M110.793 285.699C104.886 280.372 107.1 273.649 109.241 267.147C112.501 257.257 115.578 247.915 95.0259 240.364L97.6616 236.324C122.56 245.47 118.404 258.089 115.066 268.227C113.118 274.138 111.435 279.244 115.403 282.822L110.793 285.699Z" stroke="#190000" stroke-width="1.1" stroke-linecap="round" stroke-linejoin="round"/>
<path d="M45.632 357.199C106.432 401.11 116.198 408.044 116.198 408.044L107.548 448.399L44.7876 404.488L45.632 357.199Z" fill="white" stroke="#190000" stroke-width="1.1" stroke-linecap="round" stroke-linejoin="round"/>
</g>
<path d="M72.4145 276.861L57.1099 454.444C57.1099 454.444 89.6715 467.482 93.4645 458.958L104.134 354.225L126.566 238.866L76.2549 232.3" stroke="#190000" stroke-width="1.1" stroke-linecap="round" stroke-linejoin="round"/>
<path d="M77.1987 118.986L65.6285 116.385C64.6707 116.169 64.232 114.932 64.6487 113.621L75.2983 80.1136C75.715 78.8026 76.8292 77.9145 77.787 78.1298L89.3572 80.7315C90.315 80.9469 90.7537 82.1843 90.337 83.4952L79.6874 117.003C79.2707 118.314 78.1565 119.202 77.1987 118.986Z" fill="#399FE8" stroke="#190000" stroke-width="1.1" stroke-linecap="round" stroke-linejoin="round"/>
<path d="M79.0238 94.8926L78.3444 94.7399C77.3606 94.5187 76.91 93.2478 77.338 91.9012L79.4789 85.1651C79.9069 83.8186 81.0514 82.9063 82.0352 83.1275L82.7145 83.2803C83.6983 83.5015 84.1489 84.7725 83.7209 86.119L81.58 92.855C81.152 94.2016 80.0076 95.1139 79.0238 94.8926Z" fill="#516DDB" stroke="#190000" stroke-width="1.1" stroke-linecap="round" stroke-linejoin="round"/>
<path d="M27.4746 162.085C27.4746 162.085 73.518 149.379 91.909 150.014L85.4945 184.96L29.2508 192.528L27.4746 162.085Z" fill="#409159"/>
<mask id="mask10_19_3196" style="mask-type:luminance" maskUnits="userSpaceOnUse" x="27" y="149" width="65" height="44">
<path fill-rule="evenodd" clip-rule="evenodd" d="M27.4736 162.085C27.4736 162.085 73.517 149.379 91.908 150.014L85.4935 184.96L29.2498 192.528L27.4736 162.085Z" fill="white"/>
</mask>
<g mask="url(#mask10_19_3196)">
<path d="M50.4668 146.438C20.5662 198.539 66.5795 189.884 83.8816 167.84C101.184 145.796 77.4938 197.414 77.4938 197.414L53.5994 207.456L18.2881 192.528L39.0761 160.099L50.4668 146.438" fill="#357C49"/>
</g>
<path fill-rule="evenodd" clip-rule="evenodd" d="M27.4746 162.085C27.4746 162.085 73.518 149.379 91.909 150.014L85.4945 184.96L29.2508 192.528L27.4746 162.085Z" stroke="#190000" stroke-width="1.1" stroke-linecap="round" stroke-linejoin="round"/>
<path d="M79.2578 169.231L67.2695 227.525C67.2695 245.311 126.565 245.311 126.565 245.311L135.806 153.881C135.806 153.881 115.863 147.529 90.4968 150.152" fill="#409159"/>
<mask id="mask11_19_3196" style="mask-type:luminance" maskUnits="userSpaceOnUse" x="67" y="149" width="69" height="97">
<path fill-rule="evenodd" clip-rule="evenodd" d="M79.2558 169.231L67.2676 227.525C67.2676 245.311 126.564 245.311 126.564 245.311L135.804 153.881C135.804 153.881 115.861 147.529 90.4949 150.152" fill="white"/>
</mask>
<g mask="url(#mask11_19_3196)">
<path d="M104.562 144.151C104.562 144.151 86.6435 160.268 99.3394 159.617C112.035 158.965 134.888 149.55 134.888 149.55L114.892 142.819" fill="#FACCC4"/>
<path d="M104.562 144.151C104.562 144.151 86.6435 160.268 99.3394 159.617C112.035 158.965 134.888 149.55 134.888 149.55L114.892 142.819" stroke="#190000" stroke-width="1.1" stroke-linecap="round" stroke-linejoin="round"/>
<path d="M60.2279 189.144C88.7279 208.46 137.495 202.127 137.495 202.127L135.595 249.627L39.0112 234.11L60.2279 189.144Z" fill="#399FE8" stroke="#190000" stroke-width="1.1" stroke-linecap="round" stroke-linejoin="round"/>
<path d="M129.032 176.481C109.796 247.137 69.4225 238.987 67.2703 213.345C65.1181 187.702 43.7295 236.506 43.7295 236.506L88.2538 261.702L135.807 263.464L150.282 227.171L137.513 184.108L129.032 176.481Z" fill="#357C49"/>
</g>
<path d="M79.2578 169.231L67.2695 227.525C67.2695 245.311 126.565 245.311 126.565 245.311L135.806 153.881C135.806 153.881 115.863 147.529 90.4968 150.152" stroke="#190000" stroke-width="1.1" stroke-linecap="round" stroke-linejoin="round"/>
<path d="M129.086 173.655L124.897 223.596L148.769 240.114L156.19 176.551C157.922 162.313 144.977 150.607 130.771 153.564" fill="#409159"/>
<mask id="mask12_19_3196" style="mask-type:luminance" maskUnits="userSpaceOnUse" x="124" y="153" width="33" height="88">
<path fill-rule="evenodd" clip-rule="evenodd" d="M129.085 173.655L124.896 223.596L148.768 240.114L156.189 176.551C157.921 162.313 144.976 150.607 130.77 153.564" fill="white"/>
</mask>
<g mask="url(#mask12_19_3196)">
<path d="M124.117 206.202C140.832 225.404 154.977 232.569 154.122 245.311C153.268 258.053 121.089 238.689 121.089 238.689L118.242 201.099" fill="#409159"/>
<path d="M124.117 206.202C140.832 225.404 154.977 232.569 154.122 245.311C153.268 258.053 121.089 238.689 121.089 238.689L118.242 201.099" stroke="#190000" stroke-width="1.1" stroke-linecap="round" stroke-linejoin="round"/>
<path d="M119.099 177.966C119.68 178.353 120.259 178.723 120.837 179.075C142.281 192.153 160.899 181.343 160.899 181.343L159.21 201.188C159.21 201.188 128.176 205.823 120.365 192.527" fill="#399FE8"/>
<path d="M119.099 177.966C119.68 178.353 120.259 178.723 120.837 179.075C142.281 192.153 160.899 181.343 160.899 181.343L159.21 201.188C159.21 201.188 128.176 205.823 120.365 192.527" stroke="#190000" stroke-width="1.1" stroke-linecap="round" stroke-linejoin="round"/>
</g>
<path d="M129.086 173.655L124.897 223.596L148.769 240.114L156.19 176.551C157.922 162.313 144.977 150.607 130.771 153.564V153.564" stroke="#190000" stroke-width="1.1" stroke-linecap="round" stroke-linejoin="round"/>
<path d="M132.017 142.619L147.031 115.864C151.587 107.745 146.538 97.5866 137.315 96.3167L115.552 93.3203C113.031 92.9732 110.434 93.3356 108.183 94.523C102.605 97.4651 94.4035 104.989 103.739 121.995C116.918 146.004 132.017 142.619 132.017 142.619Z" fill="#4B4D5C" stroke="#190000" stroke-width="1.1" stroke-linecap="round" stroke-linejoin="round"/>
<path d="M102.738 151.433L112.433 120.486L129.659 129.918L125.397 152.382" fill="#FACCC4"/>
<mask id="mask13_19_3196" style="mask-type:luminance" maskUnits="userSpaceOnUse" x="102" y="120" width="28" height="33">
<path fill-rule="evenodd" clip-rule="evenodd" d="M102.74 151.433L112.435 120.486L129.661 129.918L125.398 152.382" fill="white"/>
</mask>
<g mask="url(#mask13_19_3196)">
<path d="M122.407 132.353C112.327 135.43 100.999 154.317 104.867 141.824C106.587 136.27 101.346 132.569 101.346 132.569L105.723 120.197L124.391 129.981" fill="#ED707B"/>
</g>
<path d="M102.738 151.433L112.433 120.486L129.659 129.918L125.397 152.382" stroke="#190000" stroke-width="1.1" stroke-linecap="round" stroke-linejoin="round"/>
<path d="M118.741 136.229C112.111 136.622 102.972 135.857 101.545 132.427C97.7528 123.318 105.202 102.594 113.463 99.5764C121.724 96.559 131.151 112.304 131.151 112.304L126.471 130.901" fill="#FACCC4"/>
<mask id="mask14_19_3196" style="mask-type:luminance" maskUnits="userSpaceOnUse" x="100" y="99" width="32" height="38">
<path fill-rule="evenodd" clip-rule="evenodd" d="M118.74 136.229C112.11 136.622 102.971 135.857 101.544 132.427C97.7518 123.318 105.201 102.594 113.462 99.5764C121.723 96.559 131.15 112.304 131.15 112.304L126.47 130.901" fill="white"/>
</mask>
<g mask="url(#mask14_19_3196)">
<ellipse opacity="0.27" cx="117.089" cy="126.919" rx="4.65976" ry="3.45432" fill="#ED707B"/>
<path d="M105.75 113.412C106.048 113.54 106.282 113.782 106.402 114.083C106.522 114.384 106.517 114.721 106.388 115.018L105.57 116.913C105.302 117.533 104.583 117.819 103.963 117.551C103.344 117.284 103.058 116.564 103.326 115.945L104.144 114.05C104.412 113.43 105.131 113.144 105.75 113.412L105.75 113.412Z" fill="#190000"/>
<path d="M116.308 117.883C116.927 118.15 117.213 118.87 116.945 119.489L116.127 121.384C115.999 121.682 115.757 121.916 115.456 122.036C115.155 122.155 114.818 122.15 114.521 122.022C113.901 121.754 113.615 121.035 113.883 120.416L114.701 118.521C114.969 117.901 115.688 117.615 116.308 117.883L116.308 117.883Z" fill="#190000"/>
<path d="M106.612 110.646C104.034 110.326 103.994 111.675 105.593 111.981C107.191 112.287 108.297 110.856 106.612 110.646Z" fill="#190000"/>
<path d="M117.419 115.121C119.421 116.777 118.466 117.732 117.147 116.778C115.829 115.825 116.112 114.039 117.419 115.121Z" fill="#190000"/>
<path d="M110.138 119.986C109.757 120.868 109.089 120.165 108.079 119.729C107.07 119.293 106.1 119.289 106.481 118.407C106.861 117.526 107.988 117.165 108.998 117.601C110.008 118.037 110.518 119.105 110.138 119.986Z" fill="#ED707B"/>
<path d="M104.049 123.885C103.379 128.956 108.538 128.431 109.589 125.487C109.641 125.334 109.592 125.165 109.465 125.063C108.936 124.629 107.336 123.554 104.439 123.547C104.243 123.547 104.076 123.691 104.049 123.885Z" fill="#C1525F"/>
<mask id="mask15_19_3196" style="mask-type:luminance" maskUnits="userSpaceOnUse" x="103" y="123" width="7" height="5">
<path fill-rule="evenodd" clip-rule="evenodd" d="M104.049 123.885C103.38 128.956 108.539 128.431 109.59 125.487C109.642 125.334 109.593 125.165 109.466 125.063C108.937 124.629 107.337 123.554 104.44 123.547C104.244 123.547 104.077 123.691 104.049 123.885Z" fill="white"/>
</mask>
<g mask="url(#mask15_19_3196)">
<ellipse cx="106.609" cy="127.638" rx="2.56406" ry="2.28852" transform="rotate(-1.0757 106.609 127.638)" fill="#993443"/>
<path d="M105.142 123.389C105.047 123.708 104.947 124.15 105.007 124.254C105.372 124.893 107.918 125.428 108.341 125.254C108.459 125.205 108.782 124.183 108.782 124.183L105.572 123.33" fill="white"/>
</g>
</g>
<path d="M118.741 136.229C112.111 136.622 102.972 135.857 101.545 132.427C97.7528 123.318 105.202 102.594 113.463 99.5764C121.724 96.559 131.151 112.304 131.151 112.304L126.471 130.901" stroke="#190000" stroke-width="1.1" stroke-linecap="round" stroke-linejoin="round"/>
<path d="M112.199 97.4878L139.065 99.1922L141.343 113.503L131.15 129.347" fill="#4B4D5C"/>
<path d="M131.967 127.025C131.967 127.025 103.498 118.498 112.199 97.4878L131.967 127.025Z" fill="#4B4D5C"/>
<path d="M131.967 127.025C131.967 127.025 103.498 118.498 112.199 97.4878" stroke="#190000" stroke-width="1.1" stroke-linecap="round" stroke-linejoin="round"/>
<path d="M122.406 123.455C134.931 113.958 139.157 130.698 125.144 130.924L122.406 123.455Z" fill="#FACCC4"/>
<path d="M122.406 123.455C134.931 113.958 139.157 130.698 125.144 130.924" stroke="#190000" stroke-width="1.1" stroke-linecap="round" stroke-linejoin="round"/>
<path d="M143.938 249.878C149.463 245.536 150.42 237.04 146.007 231.402C132.63 214.308 107.316 181.843 105.126 178.147C102.137 173.102 85.4948 160.099 85.4948 160.099C85.4948 160.099 80.5366 161.447 93.8139 173.285C93.8139 173.285 82.9597 171.657 80.9506 172.327C80.9506 172.327 79.3774 175.69 88.7119 176.251L96.6829 179.38C96.6829 179.38 90.0217 177.754 87.9777 177.811C85.9337 177.867 81.5799 178.035 81.5799 178.035C81.5799 178.035 81.7896 181.51 88.0825 181.174L92.1729 181.846L86.0898 182.407C86.0898 182.407 85.6703 185.803 95.7389 185.506C95.7389 185.506 100.354 191.823 102.137 193.056L126.564 245.332C129.826 252.313 138.089 254.475 143.938 249.878L143.938 249.878Z" fill="#FACCC4"/>
<mask id="mask16_19_3196" style="mask-type:luminance" maskUnits="userSpaceOnUse" x="80" y="160" width="69" height="93">
<path fill-rule="evenodd" clip-rule="evenodd" d="M143.94 249.878C149.465 245.536 150.421 237.04 146.009 231.402C132.631 214.308 107.318 181.843 105.128 178.147C102.139 173.102 85.4967 160.099 85.4967 160.099C85.4967 160.099 80.5386 161.447 93.8159 173.285C93.8159 173.285 82.9617 171.657 80.9525 172.327C80.9525 172.327 79.3793 175.69 88.7138 176.251L96.6848 179.38C96.6848 179.38 90.0236 177.754 87.9796 177.811C85.9356 177.867 81.5818 178.035 81.5818 178.035C81.5818 178.035 81.7916 181.51 88.0845 181.174L92.1749 181.846L86.0917 182.407C86.0917 182.407 85.6722 185.803 95.7409 185.506C95.7409 185.506 100.356 191.823 102.139 193.056L126.565 245.332C129.828 252.313 138.091 254.475 143.94 249.878L143.94 249.878Z" fill="white"/>
</mask>
<g mask="url(#mask16_19_3196)">
<path d="M130.041 210.933C147.705 233.101 144.91 245.345 141.346 254.212C137.783 263.079 153.827 252.306 153.827 252.306L153.194 228.667L137.572 214.312" fill="#ED707B"/>
</g>
<path fill-rule="evenodd" clip-rule="evenodd" d="M143.938 249.878C149.463 245.536 150.42 237.04 146.007 231.402C132.63 214.308 107.316 181.843 105.126 178.147C102.137 173.102 85.4948 160.099 85.4948 160.099C85.4948 160.099 80.5366 161.447 93.8139 173.285C93.8139 173.285 82.9597 171.657 80.9506 172.327C80.9506 172.327 79.3774 175.69 88.7119 176.251L96.6829 179.38C96.6829 179.38 90.0217 177.754 87.9777 177.811C85.9337 177.867 81.5799 178.035 81.5799 178.035C81.5799 178.035 81.7896 181.51 88.0825 181.174L92.1729 181.846L86.0898 182.407C86.0898 182.407 85.6703 185.803 95.7389 185.506C95.7389 185.506 100.354 191.823 102.137 193.056L126.564 245.332C129.826 252.313 138.089 254.475 143.938 249.878L143.938 249.878Z" stroke="#190000" stroke-width="1.1" stroke-linecap="round" stroke-linejoin="round"/>
<path d="M48.8424 119.829L64.8894 97.918C64.8894 97.918 82.8242 90.2491 83.6109 88.9971C83.6109 88.9971 86.9982 93.5526 72.9709 98.2493C72.5221 98.3996 72.0552 98.55 71.5702 98.7005C71.5702 98.7005 78.7338 98.0745 79.5991 97.918C80.4644 97.7615 88.2519 102.144 88.2519 102.144C88.2519 102.144 88.4879 105.117 80.779 102.065L71.8903 104.413H78.7338L86.2067 109.499C86.2067 109.499 84.7121 112.943 77.3966 108.56L69.2945 109.812L77.1606 111.534L82.1163 115.368C82.1163 115.368 81.5657 118.186 75.5874 114.351L71.5702 114.195C71.5702 114.195 66.7773 120.22 60.1697 122.411L41.6197 183.282C39.2092 191.193 30.2014 194.887 22.9898 190.923C16.5604 187.389 14.3049 179.201 18.0075 172.837L48.8424 119.829Z" fill="#FACCC4"/>
<mask id="mask17_19_3196" style="mask-type:luminance" maskUnits="userSpaceOnUse" x="16" y="88" width="73" height="105">
<path fill-rule="evenodd" clip-rule="evenodd" d="M48.8395 119.829L64.8865 97.918C64.8865 97.918 82.8213 90.2491 83.6079 88.9971C83.6079 88.9971 86.9952 93.5526 72.968 98.2493C72.5192 98.3996 72.0522 98.55 71.5673 98.7005C71.5673 98.7005 78.7309 98.0745 79.5962 97.918C80.4615 97.7615 88.249 102.144 88.249 102.144C88.249 102.144 88.485 105.117 80.7761 102.065L71.8873 104.413H78.7309L86.2038 109.499C86.2038 109.499 84.7092 112.943 77.3937 108.56L69.2915 109.812L77.1577 111.534L82.1134 115.368C82.1134 115.368 81.5627 118.186 75.5844 114.351L71.5672 114.195C71.5672 114.195 66.7743 120.22 60.1668 122.411L41.6168 183.282C39.2062 191.193 30.1985 194.887 22.9869 190.923C16.5575 187.389 14.3019 179.201 18.0045 172.837L48.8395 119.829Z" fill="white"/>
</mask>
<g mask="url(#mask17_19_3196)">
<path d="M18.6609 137.879C12.3276 192.885 26.6608 194.875 37.7553 188.496C48.8498 182.117 23.0942 214.629 23.0942 214.629L4.09424 210.406L4.93867 166.495" fill="#ED707B"/>
</g>
<path fill-rule="evenodd" clip-rule="evenodd" d="M48.8424 119.829L64.8894 97.918C64.8894 97.918 82.8243 90.2491 83.6109 88.9971C83.6109 88.9971 86.9982 93.5526 72.9709 98.2493C72.5221 98.3996 72.0552 98.55 71.5702 98.7005C71.5702 98.7005 78.7338 98.0745 79.5991 97.918C80.4644 97.7615 88.2519 102.144 88.2519 102.144C88.2519 102.144 88.4879 105.117 80.779 102.065L71.8903 104.413H78.7338L86.2067 109.499C86.2067 109.499 84.7121 112.943 77.3966 108.56L69.2945 109.812L77.1606 111.534L82.1163 115.368C82.1163 115.368 81.5657 118.186 75.5874 114.351L71.5702 114.195C71.5702 114.195 66.7773 120.22 60.1697 122.411L41.6197 183.282C39.2092 191.193 30.2014 194.887 22.9898 190.923V190.923C16.5604 187.389 14.3049 179.201 18.0075 172.837L48.8424 119.829Z" stroke="#190000" stroke-width="1.1" stroke-linecap="round" stroke-linejoin="round"/>
<path d="M97.6699 155.482C100.942 158.438 126.3 147.61 126.3 147.61L132.398 152.8C132.398 152.8 102.737 163.959 95.6646 160.354L97.6699 155.482Z" fill="white" stroke="#190000" stroke-width="1.1" stroke-linecap="round" stroke-linejoin="round"/>
<path d="M95.6665 148.833L104.103 145.051C104.103 145.051 98.0027 155.808 101.536 161.071C101.536 161.071 95.6665 163.188 94.6108 160.099C93.8866 157.98 95.6665 148.833 95.6665 148.833Z" fill="white" stroke="#190000" stroke-width="1.1" stroke-linecap="round" stroke-linejoin="round"/>
<path d="M122.475 102.302C122.3 105.246 124.134 108.205 126.849 109.358" stroke="#190000" stroke-width="1.1" stroke-linecap="round" stroke-linejoin="round"/>
<path d="M56.6953 121.334L60.0696 122.61" stroke="#E84B23" stroke-width="1.1" stroke-linecap="round" stroke-linejoin="round"/>
<path d="M124.875 352.312L124.038 355.691" stroke="#190000" stroke-width="1.1" stroke-linecap="round" stroke-linejoin="round"/>
<path d="M59.6597 489.064H63.8819" stroke="#190000" stroke-width="1.1" stroke-linecap="round" stroke-linejoin="round"/>
<path d="M103.56 189.916L102.726 192.452" stroke="#E84B23" stroke-width="1.1" stroke-linecap="round" stroke-linejoin="round"/>
<path d="M84.7847 218.419C86.7058 219.092 88.6844 219.586 90.6958 219.897" stroke="#75AA3C" stroke-width="1.1" stroke-linecap="round" stroke-linejoin="round"/>
<path d="M44.7646 313.963L48.2637 313.434" stroke="#90282A" stroke-width="1.1" stroke-linecap="round" stroke-linejoin="round"/>
<path d="M128.846 123.487C129.041 123.745 128.959 124.132 128.749 124.378C128.52 124.606 128.242 124.781 127.936 124.887" stroke="#190000" stroke-width="1.1" stroke-linecap="round" stroke-linejoin="round"/>
<path d="M115.19 373.423C117.249 372.717 119.362 372.179 121.507 371.814C120.82 376.874 119.662 381.859 118.048 386.703" stroke="#190000" stroke-width="1.1" stroke-linecap="round" stroke-linejoin="round"/>
<path d="M53.7163 476.012C54.5393 477.471 55.5864 478.791 56.8194 479.925L42.6802 483.974" stroke="#190000" stroke-width="1.1" stroke-linecap="round" stroke-linejoin="round"/>
<path d="M93.5498 173.344L95.7665 174.294" stroke="#E84B23" stroke-width="1.1" stroke-linecap="round" stroke-linejoin="round"/>
<path d="M119.056 178.893C118.449 180.167 117.513 181.255 116.343 182.044" stroke="#75AA3C" stroke-width="1.1" stroke-linecap="round" stroke-linejoin="round"/>
<path d="M148.339 212.779C147.484 213.288 146.579 213.707 145.639 214.029" stroke="#75AA3C" stroke-width="1.1" stroke-linecap="round" stroke-linejoin="round"/>
<path d="M61.877 159.41C61.3793 161.483 61.2759 163.632 61.5723 165.743" stroke="#75AA3C" stroke-width="1.1" stroke-linecap="round" stroke-linejoin="round"/>
<path d="M98.6267 373.947L90.6138 375.679" stroke="#90282A" stroke-width="1.1" stroke-linecap="round" stroke-linejoin="round"/>
<path d="M85.172 259.504L83.8799 262.872" stroke="#90282A" stroke-width="1.1" stroke-linecap="round" stroke-linejoin="round"/>
</svg>
