<svg width="625" height="510" viewBox="0 0 625 510" fill="none" xmlns="http://www.w3.org/2000/svg">
<rect x="248.058" y="1.13264" width="290.778" height="347.923" rx="19.7449" fill="#EFF3FC"/>
<mask id="mask0_19_2414" style="mask-type:luminance" maskUnits="userSpaceOnUse" x="248" y="1" width="291" height="349">
<rect x="248.06" y="1.13264" width="290.778" height="347.923" rx="19.7449" fill="white"/>
</mask>
<g mask="url(#mask0_19_2414)">
<path d="M231.61 296.609C234.406 219.731 203.655 358.174 420.31 349.057C636.966 339.94 213.439 398.646 213.439 398.646L189.677 327.418" fill="#D6DCF2"/>
</g>
<rect x="248.058" y="1.13264" width="290.778" height="347.923" rx="19.7449" stroke="#190000" stroke-width="2.15141" stroke-linecap="round" stroke-linejoin="round"/>
<rect x="269.781" y="42.3543" width="247.328" height="155.973" rx="13.3409" fill="#9879C9"/>
<mask id="mask1_19_2414" style="mask-type:luminance" maskUnits="userSpaceOnUse" x="269" y="42" width="249" height="157">
<rect x="269.783" y="42.3553" width="247.328" height="155.973" rx="13.3409" fill="white"/>
</mask>
<g mask="url(#mask1_19_2414)">
<path d="M215.926 265.221L544.209 8.4803V230.815L352.972 273.452" fill="#6F4EB9"/>
</g>
<rect x="269.781" y="42.3543" width="247.328" height="155.973" rx="13.3409" stroke="#190000" stroke-width="2.15141" stroke-linecap="round" stroke-linejoin="round"/>
<path d="M377.121 72.8858L313.469 165.973H440.773L377.121 72.8858Z" fill="#EFF3FC" stroke="#190000" stroke-width="2.15141" stroke-linecap="round" stroke-linejoin="round"/>
<path d="M431.796 104.455L389.731 165.971H473.86L431.796 104.455Z" fill="#EFF3FC" stroke="#190000" stroke-width="2.15141" stroke-linecap="round" stroke-linejoin="round"/>
<circle cx="426.318" cy="77.5695" r="14.3977" fill="#FBD164" stroke="#190000" stroke-width="2.15141" stroke-linecap="round" stroke-linejoin="round"/>
<rect x="267.744" y="226.733" width="170.456" height="12.5335" rx="5.17834" fill="#D6DCF2" stroke="#190000" stroke-width="2.15141" stroke-linecap="round" stroke-linejoin="round"/>
<rect x="267.822" y="267.678" width="201.417" height="12.5335" rx="5.17834" fill="#D6DCF2" stroke="#190000" stroke-width="2.15141" stroke-linecap="round" stroke-linejoin="round"/>
<path d="M494.383 160.557C494.453 162.77 493.403 164.869 491.59 166.138" stroke="#6F4EB9" stroke-width="2.15141" stroke-linecap="round" stroke-linejoin="round"/>
<path d="M321.153 64.6932L313.674 70.2517" stroke="#6F4EB9" stroke-width="2.15141" stroke-linecap="round" stroke-linejoin="round"/>
<path d="M482.302 319.965L463.663 327.416" stroke="#D6DCF2" stroke-width="2.15141" stroke-linecap="round" stroke-linejoin="round"/>
<mask id="mask2_19_2414" style="mask-type:luminance" maskUnits="userSpaceOnUse" x="0" y="48" width="609" height="462">
<rect x="0.462891" y="48.4578" width="608.067" height="460.611" fill="white"/>
</mask>
<g mask="url(#mask2_19_2414)">
<path d="M237.975 1019.24C227.634 1009.69 212.129 981.488 212.865 964.772L226.674 736.702V489.594L130.207 515.28C104.822 553.331 175.746 747.199 175.746 747.199C156.681 803.976 177.325 981.671 177.325 981.671L198.14 996.21L206.639 1010.19L241.048 1025.57C241.048 1025.57 248.625 1029.07 237.975 1019.24Z" fill="#FACCC4"/>
<path fill-rule="evenodd" clip-rule="evenodd" d="M237.975 1019.24C227.634 1009.69 212.129 981.488 212.865 964.772L226.675 736.702V489.594L130.207 515.28C104.822 553.331 175.746 747.199 175.746 747.199C156.681 803.976 177.325 981.671 177.325 981.671L198.14 996.21L206.639 1010.19L241.048 1025.57C241.048 1025.57 248.625 1029.07 237.975 1019.24Z" stroke="#190000" stroke-width="2.15141" stroke-linecap="round" stroke-linejoin="round"/>
<path d="M212.925 479.597L114.02 495.074C84.2032 532.386 125.122 741.076 125.122 741.076C99.3132 799.054 104.331 996.26 104.331 996.26L116.633 1007.96V1011.33L132.45 1039.17L166.859 1055.61C166.859 1055.61 174.436 1059.36 163.786 1048.84C155.281 1040.44 143.273 1018.52 139.681 1001.06L188.14 781.583L212.925 479.597Z" fill="#FACCC4"/>
<path fill-rule="evenodd" clip-rule="evenodd" d="M212.925 479.597L114.02 495.074C84.2032 532.386 125.122 741.076 125.122 741.076C99.3132 799.054 104.331 996.26 104.331 996.26L116.633 1007.96V1011.33L132.45 1039.17L166.859 1055.61C166.859 1055.61 174.436 1059.36 163.786 1048.84C155.281 1040.44 143.273 1018.52 139.681 1001.06L188.14 781.583L212.925 479.597Z" stroke="#190000" stroke-width="2.15141" stroke-linecap="round" stroke-linejoin="round"/>
<path d="M101.635 622.6C113.575 629.203 124.586 633.946 134.722 637.171C140.387 638.973 147.505 580.899 152.633 581.813C157.761 582.728 160.9 642.63 165.51 642.776C219.126 644.47 238.393 598.247 238.393 598.247C243.538 579.33 249.85 461.17 240.25 436.133C234.54 421.24 153.846 458.517 139.755 439.932C115.167 456.524 75.3984 472.285 101.635 622.6Z" fill="white"/>
<mask id="mask3_19_2414" style="mask-type:luminance" maskUnits="userSpaceOnUse" x="93" y="432" width="153" height="211">
<path fill-rule="evenodd" clip-rule="evenodd" d="M101.634 622.602C113.574 629.206 124.585 633.949 134.721 637.174C140.386 638.976 147.504 580.902 152.632 581.816C157.76 582.73 160.899 642.633 165.509 642.779C219.125 644.472 238.392 598.25 238.392 598.25C243.537 579.333 249.849 461.173 240.249 436.136C234.539 421.243 153.845 458.52 139.754 439.935C115.166 456.527 75.3975 472.288 101.634 622.602Z" fill="white"/>
</mask>
<g mask="url(#mask3_19_2414)">
<path d="M257.372 424.909C203.337 498.176 80.9862 421.512 88.127 623.079C95.2677 824.647 36.7715 446.607 36.7715 446.607L196.397 437.153L221.184 432.533" fill="#D6DCF2"/>
</g>
<path fill-rule="evenodd" clip-rule="evenodd" d="M101.635 622.6C113.575 629.203 124.586 633.946 134.722 637.171C140.387 638.973 147.505 580.899 152.633 581.813C157.761 582.728 160.9 642.63 165.51 642.776C219.126 644.47 238.393 598.247 238.393 598.247C243.538 579.33 249.85 461.17 240.25 436.133C234.54 421.24 153.846 458.517 139.755 439.932C115.167 456.524 75.3984 472.285 101.635 622.6Z" stroke="#190000" stroke-width="2.15141" stroke-linecap="round" stroke-linejoin="round"/>
<path d="M246.964 318.054C246.964 318.054 302.987 286.324 304.469 284.345C314.733 270.641 385.375 156.858 388.674 147.266C392.435 136.332 387.14 140.601 386.928 134.695C386.771 130.323 382.201 132.153 383.028 124.709C383.914 116.73 378.251 121.113 378.251 115.203C378.251 109.293 370.567 84.5651 370.567 84.5651C370.567 84.5651 363.709 81.5081 370.236 103.733L369.829 115.647C369.829 115.647 365.544 106.043 361.481 112.101C369.681 122.296 351.88 124.563 363.626 151.158C363.626 151.158 325.263 200.797 291.911 231.461C262.018 258.944 190.298 279.054 178.058 282.858" fill="#FACCC4"/>
<mask id="mask4_19_2414" style="mask-type:luminance" maskUnits="userSpaceOnUse" x="178" y="84" width="213" height="235">
<path fill-rule="evenodd" clip-rule="evenodd" d="M246.962 318.059C246.962 318.059 302.985 286.328 304.467 284.35C314.731 270.646 385.373 156.863 388.672 147.27C392.433 136.337 387.138 140.606 386.926 134.7C386.769 130.328 382.199 132.158 383.026 124.714C383.912 116.735 378.249 121.118 378.249 115.208C378.249 109.298 370.565 84.5699 370.565 84.5699C370.565 84.5699 363.707 81.5128 370.234 103.738L369.827 115.651C369.827 115.651 365.542 106.048 361.479 112.105C369.679 122.3 351.878 124.568 363.624 151.163C363.624 151.163 325.261 200.802 291.909 231.466C262.016 258.949 190.296 279.058 178.056 282.862" fill="white"/>
</mask>
<g mask="url(#mask4_19_2414)">
<path d="M246.669 254.549C252.642 295.52 265.214 307.83 280.654 298.771C296.094 289.712 264.605 328.734 264.605 328.734H227.429L230.484 270.678L238.632 248.78" fill="#ED707B"/>
</g>
<path d="M246.964 318.054C246.964 318.054 302.987 286.324 304.469 284.345C314.733 270.641 385.375 156.858 388.674 147.266C392.435 136.332 387.14 140.601 386.928 134.695C386.771 130.323 382.201 132.153 383.028 124.709C383.914 116.73 378.251 121.113 378.251 115.203C378.251 109.293 370.567 84.5651 370.567 84.5651C370.567 84.5651 363.709 81.5081 370.236 103.733L369.829 115.647C369.829 115.647 365.544 106.043 361.481 112.101C369.681 122.296 351.88 124.563 363.626 151.158C363.626 151.158 325.263 200.797 291.911 231.461C262.018 258.944 190.298 279.054 178.058 282.858" stroke="#190000" stroke-width="2.15141" stroke-linecap="round" stroke-linejoin="round"/>
<path d="M246.67 254.546C246.67 254.546 259.513 282.643 257.375 327.97C257.112 333.551 164.359 356.092 164.359 356.092L158.816 251.862C206.857 248.73 209.094 269.308 246.67 254.546Z" fill="#9879C9"/>
<mask id="mask5_19_2414" style="mask-type:luminance" maskUnits="userSpaceOnUse" x="158" y="251" width="100" height="106">
<path fill-rule="evenodd" clip-rule="evenodd" d="M246.669 254.544C246.669 254.544 259.513 282.641 257.374 327.968C257.111 333.549 164.358 356.09 164.358 356.09L158.815 251.86C206.856 248.729 209.093 269.306 246.669 254.544Z" fill="white"/>
</mask>
<g mask="url(#mask5_19_2414)">
<path d="M221.557 245.236C247.02 279.357 241.113 347.739 241.113 347.739L221.557 245.236Z" fill="#9879C9"/>
<path d="M221.557 245.236C247.02 279.357 241.113 347.739 241.113 347.739" stroke="#190000" stroke-width="2.15141" stroke-linecap="round" stroke-linejoin="round"/>
</g>
<path fill-rule="evenodd" clip-rule="evenodd" d="M246.67 254.546C246.67 254.546 259.513 282.643 257.375 327.97C257.112 333.551 164.359 356.092 164.359 356.092L158.816 251.862C206.857 248.73 209.094 269.308 246.67 254.546Z" stroke="#190000" stroke-width="2.15141" stroke-linecap="round" stroke-linejoin="round"/>
<path d="M139.054 440.873C141.067 441.544 196.398 475.448 241.111 438.634C241.111 438.634 225.22 392.184 225.392 365.931C225.625 330.477 221.617 319.408 221.617 319.408C221.617 319.408 176.802 270.7 173.024 223.592C173.024 223.592 130.392 190.2 131.113 230.377C131.715 263.956 115.166 269.205 115.166 269.205L139.054 440.873Z" fill="#FACCC4" stroke="#190000" stroke-width="2.15141" stroke-linecap="round" stroke-linejoin="round"/>
<path d="M101.637 332.382L125.665 421.626C125.665 421.626 201.489 447.125 239.737 416.258C225.395 373.984 274.775 347.739 213.938 311.095C168.834 320.303 159.29 243.633 115.169 269.205L101.637 332.382Z" fill="#9879C9"/>
<mask id="mask6_19_2414" style="mask-type:luminance" maskUnits="userSpaceOnUse" x="101" y="263" width="145" height="169">
<path fill-rule="evenodd" clip-rule="evenodd" d="M101.637 332.385L125.665 421.629C125.665 421.629 201.489 447.128 239.737 416.261C225.395 373.987 274.775 347.742 213.938 311.098C168.834 320.306 159.29 243.636 115.169 269.208L101.637 332.385Z" fill="white"/>
</mask>
<g mask="url(#mask6_19_2414)">
<path d="M140.865 333.171C103.923 432.53 188.706 407.778 239.739 416.262C275.224 422.162 105.901 464.781 105.901 464.781L75.9238 387.723L101.113 350.726L140.865 333.171Z" fill="#6F4EB9"/>
<path d="M184.19 315.928V379.56L286.486 343.246L184.19 315.928Z" fill="white"/>
<mask id="mask7_19_2414" style="mask-type:luminance" maskUnits="userSpaceOnUse" x="184" y="315" width="103" height="65">
<path fill-rule="evenodd" clip-rule="evenodd" d="M184.191 315.929V379.561L286.487 343.247L184.191 315.929Z" fill="white"/>
</mask>
<g mask="url(#mask7_19_2414)">
<rect x="170.711" y="293.395" width="27.9929" height="105.169" fill="#FB81B2" stroke="#190000" stroke-width="2.15141" stroke-linecap="round" stroke-linejoin="round"/>
</g>
<path fill-rule="evenodd" clip-rule="evenodd" d="M184.19 315.928V379.56L286.486 343.246L184.19 315.928V315.928Z" stroke="#190000" stroke-width="2.15141" stroke-linecap="round" stroke-linejoin="round"/>
</g>
<path fill-rule="evenodd" clip-rule="evenodd" d="M101.637 332.382L125.665 421.626C125.665 421.626 201.489 447.125 239.737 416.258C225.395 373.984 274.775 347.739 213.938 311.095C168.834 320.303 159.29 243.633 115.169 269.205L101.637 332.382Z" stroke="#190000" stroke-width="2.15141" stroke-linecap="round" stroke-linejoin="round"/>
<path d="M118.282 475.308C118.282 475.308 139.083 465.242 145.122 466.584C151.161 467.926 149.484 475.308 149.484 475.308C149.484 475.308 154.516 474.04 153.771 482.241C153.771 482.241 158.095 484.776 156.753 491.486C156.753 491.486 162.569 496.556 154.666 502.67C150.629 505.793 142.741 508.799 135.989 510.992C128.772 513.322 120.865 511.82 115.005 507.004L106.8 500.284L51.768 437.631C44.4169 429.262 42.425 417.458 46.6228 407.14L75.6724 335.737L134.217 353.349L91.1057 418.272L118.282 475.308Z" fill="#FACCC4"/>
<mask id="mask8_19_2414" style="mask-type:luminance" maskUnits="userSpaceOnUse" x="44" y="335" width="115" height="178">
<path fill-rule="evenodd" clip-rule="evenodd" d="M118.286 475.309C118.286 475.309 139.087 465.244 145.126 466.586C151.165 467.928 149.488 475.309 149.488 475.309C149.488 475.309 154.52 474.042 153.775 482.243C153.775 482.243 158.099 484.778 156.757 491.488C156.757 491.488 162.573 496.558 154.669 502.672C150.633 505.794 142.745 508.8 135.993 510.994C128.776 513.324 120.869 511.821 115.009 507.006L106.804 500.286L51.7719 437.633C44.4208 429.263 42.4289 417.459 46.6267 407.141L75.6763 335.739L134.221 353.35L91.1096 418.273L118.286 475.309Z" fill="white"/>
</mask>
<g mask="url(#mask8_19_2414)">
<path d="M40.0273 386.787C80.7681 345.537 83.129 383.477 116.275 383.381C149.421 383.285 58.3607 330.259 58.3607 330.259L51.7493 333.168" fill="#ED707B"/>
</g>
<path fill-rule="evenodd" clip-rule="evenodd" d="M118.282 475.308C118.282 475.308 139.083 465.242 145.122 466.584C151.161 467.926 149.484 475.308 149.484 475.308C149.484 475.308 154.516 474.04 153.771 482.241C153.771 482.241 158.095 484.776 156.753 491.486C156.753 491.486 162.569 496.556 154.666 502.67C150.629 505.793 142.741 508.799 135.989 510.992C128.772 513.322 120.865 511.82 115.005 507.004L106.8 500.284L51.768 437.631C44.4169 429.262 42.425 417.458 46.6228 407.14L75.6724 335.737L134.217 353.349L91.1057 418.272L118.282 475.308Z" stroke="#190000" stroke-width="2.15141" stroke-linecap="round" stroke-linejoin="round"/>
<path d="M60.6006 343.44C60.6006 343.44 90.4773 381.194 116.959 383.291L158.915 311.013C166.797 297.436 164.029 279.987 152.361 269.697C138.152 257.167 116.533 260.055 105.901 275.905L60.6006 343.44Z" fill="#9879C9"/>
<mask id="mask9_19_2414" style="mask-type:luminance" maskUnits="userSpaceOnUse" x="60" y="261" width="104" height="123">
<path fill-rule="evenodd" clip-rule="evenodd" d="M60.6006 343.444C60.6006 343.444 90.4773 381.197 116.959 383.294L158.915 311.016C166.797 297.439 164.029 279.99 152.361 269.701C138.152 257.17 116.533 260.059 105.901 275.909L60.6006 343.444Z" fill="white"/>
</mask>
<g mask="url(#mask9_19_2414)">
<path d="M71.778 307.873C58.3578 330.256 127.855 369.494 129.383 368.475L71.778 307.873Z" fill="#9879C9"/>
<path d="M71.778 307.873C58.3578 330.256 127.855 369.494 129.383 368.475" stroke="#190000" stroke-width="2.15141" stroke-linecap="round" stroke-linejoin="round"/>
</g>
<path fill-rule="evenodd" clip-rule="evenodd" d="M60.6006 343.44C60.6006 343.44 90.4773 381.194 116.959 383.291L158.915 311.013C166.797 297.436 164.029 279.987 152.361 269.697V269.697C138.152 257.167 116.533 260.055 105.901 275.905L60.6006 343.44Z" stroke="#190000" stroke-width="2.15141" stroke-linecap="round" stroke-linejoin="round"/>
<rect x="350.599" y="56.7869" width="8.31023" height="93.71" rx="3.24083" transform="rotate(-14.4399 350.599 56.7869)" fill="#516DDB"/>
<mask id="mask10_19_2414" style="mask-type:luminance" maskUnits="userSpaceOnUse" x="351" y="55" width="31" height="92">
<rect x="350.597" y="56.786" width="8.31023" height="93.71" rx="3.24083" transform="rotate(-14.4399 350.597 56.786)" fill="white"/>
</mask>
<g mask="url(#mask10_19_2414)">
<rect x="346.938" y="57.7313" width="8.31023" height="93.71" rx="3.24083" transform="rotate(-14.4399 346.938 57.7313)" fill="#409159" stroke="#190000" stroke-width="2.15141" stroke-linecap="round" stroke-linejoin="round"/>
</g>
<rect x="350.599" y="56.7869" width="8.31023" height="93.71" rx="3.24083" transform="rotate(-14.4399 350.599 56.7869)" stroke="#190000" stroke-width="2.15141" stroke-linecap="round" stroke-linejoin="round"/>
<path d="M378.562 124.054C360.381 143.839 377.209 157.305 382.642 153.272C386.698 150.262 388.676 147.268 388.676 147.268" fill="#FACCC4"/>
<path d="M378.562 124.054C360.381 143.839 377.209 157.305 382.642 153.272C386.698 150.262 388.676 147.268 388.676 147.268" stroke="#190000" stroke-width="2.15141" stroke-linecap="round" stroke-linejoin="round"/>
<circle cx="70.5845" cy="188.131" r="18.8354" fill="#FBD164" stroke="#190000" stroke-width="2.15141" stroke-linecap="round" stroke-linejoin="round"/>
<path d="M147.94 106.035C123.413 109.508 128.716 129.743 128.716 129.743C149.54 123.617 144.281 114.62 147.94 106.035Z" fill="#FB81B2" stroke="#190000" stroke-width="2.15141" stroke-linecap="round" stroke-linejoin="round"/>
<path d="M158.059 126.515C139.183 110.472 127.565 127.868 127.565 127.868C145.968 139.38 149.208 129.475 158.059 126.515Z" fill="#FB81B2" stroke="#190000" stroke-width="2.15141" stroke-linecap="round" stroke-linejoin="round"/>
<path d="M178.139 247.658L167.394 198.153L126.836 202.032L130.884 244.353" fill="#FACCC4"/>
<mask id="mask11_19_2414" style="mask-type:luminance" maskUnits="userSpaceOnUse" x="126" y="198" width="53" height="50">
<path fill-rule="evenodd" clip-rule="evenodd" d="M178.139 247.654L167.394 198.149L126.836 202.028L130.884 244.349" fill="white"/>
</mask>
<g mask="url(#mask11_19_2414)">
<path d="M188.426 245.942C156.15 244.481 163.537 226.191 148.698 215.483C133.859 204.775 182.274 210.149 182.274 210.149L198.066 238.956L192.418 246.469" fill="#ED707B"/>
</g>
<path d="M178.139 247.658L167.394 198.153L126.836 202.032L130.884 244.353" stroke="#190000" stroke-width="2.15141" stroke-linecap="round" stroke-linejoin="round"/>
<circle cx="145.119" cy="160.98" r="24.4455" fill="#FBD164" stroke="#190000" stroke-width="2.15141" stroke-linecap="round" stroke-linejoin="round"/>
<path d="M145.118 141.345C223.811 196.429 178.14 247.653 122.382 213.921C70.2361 182.374 145.118 141.345 145.118 141.345Z" fill="#FACCC4" stroke="#190000" stroke-width="2.15141" stroke-linecap="round" stroke-linejoin="round"/>
<path d="M133.091 129.45C193.975 163.352 122.687 199.945 122.687 199.945L111.27 150.178L127.48 127.548" fill="#FBD164"/>
<path d="M133.091 129.45C193.975 163.352 122.687 199.945 122.687 199.945L111.27 150.178L127.48 127.548" stroke="#190000" stroke-width="2.15141" stroke-linecap="round" stroke-linejoin="round"/>
<circle cx="71.7778" cy="150.026" r="48.8911" fill="#FBD164" stroke="#190000" stroke-width="2.15141" stroke-linecap="round" stroke-linejoin="round"/>
<path d="M115.017 127.213L79.7793 201.087C93.6868 228.555 114.603 217.518 128.643 231.607C128.643 231.607 150.424 153.573 129.408 124.738C129.408 124.738 122.924 121.505 115.017 127.213Z" fill="#FB81B2"/>
<mask id="mask12_19_2414" style="mask-type:luminance" maskUnits="userSpaceOnUse" x="79" y="123" width="60" height="109">
<path fill-rule="evenodd" clip-rule="evenodd" d="M115.014 127.208L79.7764 201.082C93.6838 228.55 114.6 217.513 128.64 231.602C128.64 231.602 150.421 153.568 129.405 124.733C129.405 124.733 122.921 121.5 115.014 127.208Z" fill="white"/>
</mask>
<g mask="url(#mask12_19_2414)">
<path d="M66.9941 231.605C98.3136 226.138 115.014 127.211 115.014 127.211L76.1608 141.346L70.5812 222.902" fill="#EA70A2"/>
</g>
<path fill-rule="evenodd" clip-rule="evenodd" d="M115.017 127.213L79.7793 201.087C93.6868 228.555 114.603 217.518 128.643 231.607C128.643 231.607 150.424 153.573 129.408 124.738C129.408 124.738 122.924 121.505 115.017 127.213Z" stroke="#190000" stroke-width="2.15141" stroke-linecap="round" stroke-linejoin="round"/>
<path d="M162.537 168.894C164.157 167.828 166.335 168.278 167.4 169.898L170.659 174.854C171.725 176.474 171.275 178.652 169.655 179.717C168.034 180.783 165.857 180.333 164.791 178.713L161.532 173.757C160.466 172.137 160.916 169.959 162.537 168.894L162.537 168.894Z" fill="#190000"/>
<path d="M157.81 157.926C148.688 163.361 149.131 168.333 155.055 165.307C161.909 161.806 164.669 153.838 157.81 157.926Z" fill="#190000"/>
<path d="M172.538 168.679C187.889 168.499 191.375 182.497 182.107 184.721L172.538 168.679Z" fill="#FACCC4"/>
<path d="M172.538 168.679C187.889 168.499 191.375 182.497 182.107 184.721" stroke="#190000" stroke-width="2.15141" stroke-linecap="round" stroke-linejoin="round"/>
<ellipse opacity="0.36" cx="156.265" cy="188.943" rx="7.99699" ry="5.89709" transform="rotate(-23.6391 156.265 188.943)" fill="#ED707B"/>
<path d="M168.991 193.632C175.462 197.255 180.04 192.993 180.04 192.993" stroke="#993443" stroke-width="2.15141" stroke-linecap="round" stroke-linejoin="round"/>
<path d="M70.4252 131.759C68.2071 134.67 65.3835 137.064 62.1494 138.778" stroke="#F9B564" stroke-width="2.15141" stroke-linecap="round" stroke-linejoin="round"/>
<path d="M118.702 202.972C118.866 205.727 118.495 208.487 117.609 211.101" stroke="#BA393C" stroke-width="2.15141" stroke-linecap="round" stroke-linejoin="round"/>
<path d="M174.729 403.596C175.986 405.212 177.778 406.325 179.783 406.737" stroke="#6F4EB9" stroke-width="2.15141" stroke-linecap="round" stroke-linejoin="round"/>
<path d="M91.2599 418.058C85.077 420.522 78.4902 421.814 71.835 421.871" stroke="#E84B23" stroke-width="2.15141" stroke-linecap="round" stroke-linejoin="round"/>
<path d="M282.67 241.67L286.744 248.799" stroke="#E84B23" stroke-width="2.15141" stroke-linecap="round" stroke-linejoin="round"/>
<path d="M131.06 359.367C135.367 354.452 139.295 349.218 142.811 343.71" stroke="#6F4EB9" stroke-width="2.15141" stroke-linecap="round" stroke-linejoin="round"/>
<path d="M488.165 260.743C520.218 267.946 507.495 340.884 507.495 340.884L567.865 279.641L528.015 231.956L488.165 260.743Z" fill="#FACCC4"/>
<mask id="mask13_19_2414" style="mask-type:luminance" maskUnits="userSpaceOnUse" x="488" y="231" width="80" height="110">
<path fill-rule="evenodd" clip-rule="evenodd" d="M488.166 260.75C520.219 267.953 507.496 340.891 507.496 340.891L567.866 279.648L528.016 231.963L488.166 260.75Z" fill="white"/>
</mask>
<g mask="url(#mask13_19_2414)">
<path d="M501.151 297.611C533.297 273.355 507.97 263.4 522.879 248.26C537.787 233.12 493.88 246.875 493.88 246.875L480.02 266.858L493.88 284.184" fill="#ED707B"/>
</g>
<path fill-rule="evenodd" clip-rule="evenodd" d="M488.165 260.743C520.218 267.946 507.495 340.884 507.495 340.884L567.865 279.641L528.015 231.956L488.165 260.743Z" stroke="#190000" stroke-width="2.15141" stroke-linecap="round" stroke-linejoin="round"/>
<path d="M537.07 235.986C539.907 226.702 534.079 221.173 534.079 221.173L503.326 185.222L480.823 180.545C448.922 225.285 466.878 286.959 508.759 263.151C512.444 261.075 516.021 258.812 519.476 256.371" fill="#FACCC4"/>
<path d="M537.07 235.986C539.907 226.702 534.079 221.173 534.079 221.173L503.326 185.222L480.823 180.545C448.922 225.285 466.878 286.959 508.759 263.151C512.444 261.075 516.021 258.812 519.476 256.371" stroke="#190000" stroke-width="2.15141" stroke-linecap="round" stroke-linejoin="round"/>
<path d="M526.284 225.646C507.225 230.267 485.567 198.647 495.097 186.952C427.525 185.219 457.184 150.134 472.242 166.161C443.119 112.883 490.332 144.07 494.664 165.728C498.995 187.385 535.813 199.855 535.813 199.855C535.813 199.855 549.674 219.871 549.674 221.171C549.674 222.47 538.412 250.192 538.412 250.192C538.412 250.192 513.92 247.312 526.284 225.646Z" fill="#4B4D5C" stroke="#190000" stroke-width="2.15141" stroke-linecap="round" stroke-linejoin="round"/>
<path d="M504.626 165.28C447.536 66.3055 478.073 142.323 493.883 168.529C509.693 194.735 504.626 165.28 504.626 165.28Z" fill="#399FE8" stroke="#190000" stroke-width="2.15141" stroke-linecap="round" stroke-linejoin="round"/>
<path d="M493.884 168.536C527.236 139.081 592.499 191.785 542.499 240.048L493.884 168.536Z" fill="#399FE8" stroke="#190000" stroke-width="2.15141" stroke-linecap="round" stroke-linejoin="round"/>
<path d="M493.219 304.582L544.767 255.013C551.157 248.338 562.433 252.242 563.329 261.439L564.169 270.075L493.219 304.582Z" fill="white" stroke="#190000" stroke-width="2.15141" stroke-linecap="round" stroke-linejoin="round"/>
<path d="M439.592 362.03L393.805 333.986C393.805 333.986 380.451 280.187 377.971 279.042C375.49 277.898 336.572 258.438 336.572 258.438C336.572 258.438 326.105 263.747 356.031 280.759C356.031 280.759 349.736 302.508 350.308 304.797C350.88 307.086 380.069 362.03 380.069 362.03L413.264 395.225L439.592 362.03Z" fill="#FACCC4" stroke="#190000" stroke-width="2.15141" stroke-linecap="round" stroke-linejoin="round"/>
<path d="M432.681 355.038L411.739 342.687C411.739 342.687 385.277 367.426 390.633 400.967L402.789 412.851C402.789 412.851 418.182 357.364 432.681 355.038Z" fill="#399FE8" stroke="#190000" stroke-width="2.15141" stroke-linecap="round" stroke-linejoin="round"/>
<path d="M317.054 272.226L306.099 278.832L260.951 203.964C257.885 198.879 259.521 192.272 264.606 189.206L266.355 188.151L317.054 272.226Z" fill="#4B4D5C"/>
<mask id="mask14_19_2414" style="mask-type:luminance" maskUnits="userSpaceOnUse" x="259" y="188" width="59" height="91">
<path fill-rule="evenodd" clip-rule="evenodd" d="M317.054 272.227L306.099 278.833L260.951 203.965C257.885 198.88 259.521 192.273 264.606 189.207L266.355 188.152L317.054 272.227Z" fill="white"/>
</mask>
<g mask="url(#mask14_19_2414)">
<path d="M272.851 185.585L274.6 184.53L325.299 268.605L314.344 275.211L269.196 200.343C266.13 195.258 267.766 188.651 272.851 185.585Z" fill="#516DDB" stroke="#190000" stroke-width="2.15141" stroke-linecap="round" stroke-linejoin="round"/>
</g>
<path fill-rule="evenodd" clip-rule="evenodd" d="M317.054 272.226L306.099 278.832L260.951 203.964C257.885 198.879 259.521 192.272 264.606 189.206L266.355 188.151L317.054 272.226Z" stroke="#190000" stroke-width="2.15141" stroke-linecap="round" stroke-linejoin="round"/>
<path d="M366.741 337.742L333.88 303.669C333.88 303.669 324.755 266.29 324.445 264.369C324.135 262.448 306.708 238.502 303.314 247.538L308.781 258.427C310.123 261.1 309.267 264.354 306.783 266.021C304.331 267.667 301.042 267.261 299.064 265.069L276.486 240.038C276.486 240.038 266.005 244.608 280.979 262.734C280.979 262.734 278.674 293.575 283.048 299.085C287.423 304.596 310.358 319.853 313.15 326.831L366.741 400.129V337.742Z" fill="#FACCC4"/>
<mask id="mask15_19_2414" style="mask-type:luminance" maskUnits="userSpaceOnUse" x="272" y="240" width="95" height="161">
<path fill-rule="evenodd" clip-rule="evenodd" d="M366.741 337.748L333.879 303.675C333.879 303.675 324.754 266.295 324.444 264.375C324.134 262.454 306.707 238.507 303.313 247.543L308.78 258.433C310.122 261.106 309.266 264.36 306.782 266.027C304.33 267.673 301.041 267.267 299.063 265.074L276.485 240.044C276.485 240.044 266.004 244.613 280.978 262.74C280.978 262.74 278.673 293.581 283.047 299.091C287.422 304.602 310.357 319.858 313.149 326.836L366.741 400.135V337.748Z" fill="white"/>
</mask>
<g mask="url(#mask15_19_2414)">
<path d="M355.868 322.096C330.332 319.71 338.25 352.506 326.296 344.818C314.342 337.131 320.786 365.831 320.786 365.831L340.355 371.02L355.39 365.831" fill="#ED707B"/>
</g>
<path fill-rule="evenodd" clip-rule="evenodd" d="M366.741 337.742L333.88 303.669C333.88 303.669 324.755 266.29 324.445 264.369C324.135 262.448 306.708 238.502 303.314 247.538L308.781 258.427C310.123 261.1 309.267 264.354 306.783 266.021V266.021C304.331 267.667 301.042 267.261 299.064 265.069L276.486 240.038C276.486 240.038 266.005 244.608 280.979 262.734C280.979 262.734 278.674 293.575 283.048 299.085C287.423 304.596 310.358 319.853 313.15 326.831L366.741 400.129V337.742Z" stroke="#190000" stroke-width="2.15141" stroke-linecap="round" stroke-linejoin="round"/>
<path d="M430.367 475.599C631.311 599.045 435.31 578.623 436.748 599.045C438.185 619.466 645.068 593.721 645.068 593.721L464.524 423.361" fill="#D6DCF2"/>
<path d="M122.721 735.483L217.14 570.663C223.026 560.387 234.02 554.11 245.861 554.263L457.291 556.995C478.936 556.995 497.843 542.359 503.267 521.405L514.101 479.555" stroke="#D6DCF2" stroke-width="2.15141" stroke-linecap="round" stroke-linejoin="round"/>
<path d="M129.024 741.78L223.443 576.96C229.33 566.684 240.324 560.406 252.165 560.559L463.595 563.292C485.24 563.292 504.146 548.656 509.571 527.702L520.404 485.852" stroke="#D6DCF2" stroke-width="2.15141" stroke-linecap="round" stroke-linejoin="round"/>
<path d="M413.484 462.859C413.484 462.859 403.229 501.176 560.71 515.138C560.71 515.138 631.322 363.174 564.169 270.075L493.218 304.582L413.484 462.859Z" fill="#516DDB"/>
<mask id="mask16_19_2414" style="mask-type:luminance" maskUnits="userSpaceOnUse" x="413" y="270" width="181" height="246">
<path fill-rule="evenodd" clip-rule="evenodd" d="M413.485 462.861C413.485 462.861 403.23 501.178 560.711 515.14C560.711 515.14 631.323 363.176 564.17 270.077L493.219 304.584L413.485 462.861Z" fill="white"/>
</mask>
<g mask="url(#mask16_19_2414)">
<path d="M556.753 356.784C448.231 455.496 550.325 520.375 550.325 520.375C550.325 520.375 348.952 538.547 346.088 531.388C343.224 524.228 331.455 395.225 331.455 395.225L452.342 385.333" fill="#3152BA"/>
<path d="M604.316 348.296C594.076 350.934 583.698 353.006 573.23 354.501C573.23 354.501 570.008 444.516 562.791 459.03L602.884 464.28L604.316 356.41" fill="#399FE8"/>
<path d="M604.316 348.296C594.076 350.934 583.698 353.006 573.23 354.501C573.23 354.501 570.008 444.516 562.791 459.03L602.884 464.28L604.316 356.41" stroke="#190000" stroke-width="2.15141" stroke-linecap="round" stroke-linejoin="round"/>
</g>
<path fill-rule="evenodd" clip-rule="evenodd" d="M413.484 462.859C413.484 462.859 403.229 501.176 560.71 515.138C560.71 515.138 631.322 363.174 564.169 270.075L493.218 304.582L413.484 462.859Z" stroke="#190000" stroke-width="2.15141" stroke-linecap="round" stroke-linejoin="round"/>
<path d="M355.203 319.747C355.203 319.747 328.473 340.124 331.729 375.375L396.374 436.675C408.503 448.176 427.084 449.463 440.683 439.744L556.752 356.787C574.132 344.365 578.43 320.347 566.436 302.669C553.89 284.178 528.483 279.829 510.501 293.095L419.35 360.342L355.203 319.747Z" fill="#516DDB"/>
<mask id="mask17_19_2414" style="mask-type:luminance" maskUnits="userSpaceOnUse" x="331" y="285" width="243" height="162">
<path fill-rule="evenodd" clip-rule="evenodd" d="M355.2 319.747C355.2 319.747 328.47 340.124 331.726 375.375L396.371 436.675C408.5 448.176 427.081 449.463 440.68 439.744L556.749 356.787C574.129 344.365 578.427 320.347 566.433 302.669C553.887 284.178 528.48 279.829 510.498 293.095L419.347 360.342L355.2 319.747Z" fill="white"/>
</mask>
<g mask="url(#mask17_19_2414)">
<ellipse cx="413.057" cy="443.059" rx="39.2819" ry="18.8356" fill="#3152BA"/>
</g>
<path fill-rule="evenodd" clip-rule="evenodd" d="M355.203 319.747C355.203 319.747 328.473 340.124 331.729 375.375L396.374 436.675C408.503 448.176 427.084 449.463 440.683 439.744L556.752 356.787C574.132 344.365 578.43 320.347 566.436 302.669V302.669C553.89 284.178 528.483 279.829 510.501 293.095L419.35 360.342L355.203 319.747Z" stroke="#190000" stroke-width="2.15141" stroke-linecap="round" stroke-linejoin="round"/>
<path d="M373.771 329.445L352.83 317.095C352.83 317.095 326.368 341.833 331.723 375.374L343.88 387.258C343.88 387.258 359.273 331.772 373.771 329.445Z" fill="#399FE8" stroke="#190000" stroke-width="2.15141" stroke-linecap="round" stroke-linejoin="round"/>
<path d="M448.236 506.28C413.87 522.031 444.102 555.681 444.102 555.681" stroke="#D6DCF2" stroke-width="2.15141" stroke-linecap="round" stroke-linejoin="round"/>
<rect x="545.837" y="476.435" width="39.228" height="17.3559" transform="rotate(13.9217 545.837 476.435)" fill="#399FE8" stroke="#190000" stroke-width="2.15141" stroke-linecap="round" stroke-linejoin="round"/>
<circle cx="572.243" cy="491.92" r="2.1747" fill="#399FE8" stroke="#190000" stroke-width="2.15141" stroke-linecap="round" stroke-linejoin="round"/>
<path d="M476.175 223.117C474.363 223.257 472.78 221.902 472.64 220.089L472.212 214.547C472.072 212.734 473.428 211.152 475.241 211.012C477.053 210.872 478.636 212.228 478.776 214.04L479.204 219.582C479.271 220.453 478.99 221.314 478.422 221.977C477.854 222.64 477.046 223.05 476.175 223.117Z" fill="#190000"/>
<path d="M471.473 200.26C481.352 199.055 483.875 202.993 477.749 204.149C471.623 205.305 465.019 201.047 471.473 200.26Z" fill="#190000"/>
<path d="M466.882 218.069C455.402 226.742 460.85 239.117 468.995 235.448L466.882 218.069Z" fill="#FACCC4"/>
<path d="M466.882 218.069C455.402 226.742 460.85 239.117 468.995 235.448" stroke="#190000" stroke-width="2.15141" stroke-linecap="round" stroke-linejoin="round"/>
<ellipse opacity="0.36" cx="496.124" cy="223.707" rx="9.84341" ry="8.97387" fill="#ED707B"/>
<path d="M485.22 231.956C481.641 238.742 474.941 238.598 474.941 238.598" stroke="#993443" stroke-width="2.15141" stroke-linecap="round" stroke-linejoin="round"/>
<path d="M421.303 360.164C418.437 368.67 420.868 378.722 427.304 384.979" stroke="#11314B" stroke-width="2.15141" stroke-linecap="round" stroke-linejoin="round"/>
<path d="M489.158 455.862C495.165 460.083 504.251 459.086 509.199 453.663" stroke="#11314B" stroke-width="2.15141" stroke-linecap="round" stroke-linejoin="round"/>
<path d="M357.149 282.783L360.347 283.595" stroke="#E84B23" stroke-width="2.15141" stroke-linecap="round" stroke-linejoin="round"/>
<path d="M311.729 321.902C313.981 320.523 315.302 318.025 315.174 315.387" stroke="#E84B23" stroke-width="2.15141" stroke-linecap="round" stroke-linejoin="round"/>
<path d="M556.754 294.125C562.643 303.638 563.824 315.916 559.857 326.377" stroke="#11314B" stroke-width="2.15141" stroke-linecap="round" stroke-linejoin="round"/>
<path d="M541.482 436.728C540.82 438.925 539.276 440.749 537.219 441.765" stroke="#11314B" stroke-width="2.15141" stroke-linecap="round" stroke-linejoin="round"/>
</g>
<path d="M161.305 91.9768C162.775 93.3584 164.356 94.6157 166.034 95.7358C167.682 96.8372 169.404 97.823 171.189 98.6858C173.414 99.7658 175.722 100.666 178.09 101.379C179.538 101.811 180.416 101.986 180.416 101.986C180.416 101.986 180.428 101.982 180.451 101.976C180.661 101.914 181.798 101.573 183.507 100.902C186.038 99.9059 188.491 98.7235 190.847 97.3648C192.536 96.3917 194.166 95.3179 195.726 94.1492C196.892 93.2755 198.01 92.341 199.078 91.3498C200.406 90.1179 201.638 88.7858 202.762 87.3652C204.725 84.9012 206.274 82.1349 207.35 79.1743C208.028 77.284 208.497 75.3253 208.749 73.3331C208.906 72.0909 208.984 70.84 208.983 69.5878C208.982 68.6709 208.91 67.7554 208.765 66.8499C208.431 64.7786 207.752 62.7778 206.758 60.9306C205.935 59.3948 204.906 57.9788 203.7 56.7221C202.813 55.7975 201.828 54.9719 200.763 54.2596C199.238 53.2343 197.544 52.485 195.76 52.0459C194.642 51.7749 193.496 51.6378 192.346 51.6376C187.999 51.6269 183.822 53.3321 180.725 56.3828C180.62 56.4853 180.518 56.5891 180.416 56.6944C177.295 53.453 172.985 51.6265 168.485 51.6376C167.562 51.6376 166.64 51.7262 165.733 51.902C164.024 52.2386 162.384 52.8635 160.884 53.7499C159.503 54.5642 158.241 55.5643 157.132 56.7221C155.914 57.9908 154.877 59.4216 154.051 60.974C153.051 62.8413 152.375 64.8642 152.05 66.9573C151.916 67.8278 151.849 68.7071 151.849 69.5878C151.847 70.9746 151.927 72.3602 152.09 73.7374C152.33 75.7873 152.777 77.8077 153.423 79.7677C154.414 82.7522 155.888 85.5537 157.787 88.06C158.849 89.4613 160.026 90.7715 161.305 91.9768Z" fill="#D3575E"/>
<path fill-rule="evenodd" clip-rule="evenodd" d="M161.305 91.9768C162.775 93.3584 164.356 94.6157 166.034 95.7358C167.682 96.8372 169.404 97.823 171.189 98.6858C173.414 99.7658 175.722 100.666 178.09 101.379C179.538 101.811 180.416 101.986 180.416 101.986C180.416 101.986 180.428 101.982 180.451 101.976C180.661 101.914 181.798 101.573 183.507 100.902C186.038 99.9059 188.491 98.7235 190.847 97.3648C192.536 96.3917 194.166 95.3179 195.726 94.1492C196.892 93.2755 198.01 92.341 199.078 91.3498C200.406 90.1179 201.638 88.7858 202.762 87.3652C204.725 84.9012 206.274 82.1349 207.35 79.1743C208.028 77.284 208.497 75.3253 208.749 73.3331C208.906 72.0909 208.984 70.84 208.983 69.5878C208.982 68.6709 208.91 67.7554 208.765 66.8499C208.431 64.7786 207.752 62.7778 206.758 60.9306C205.935 59.3948 204.906 57.9788 203.7 56.7221C202.813 55.7975 201.828 54.9719 200.763 54.2596C199.238 53.2343 197.544 52.485 195.76 52.0459C194.642 51.7749 193.496 51.6378 192.346 51.6376C187.999 51.6269 183.822 53.3321 180.725 56.3828C180.62 56.4853 180.518 56.5891 180.416 56.6944C177.295 53.453 172.985 51.6265 168.485 51.6376C167.562 51.6376 166.64 51.7262 165.733 51.902C164.024 52.2386 162.384 52.8635 160.884 53.7499C159.503 54.5642 158.241 55.5643 157.132 56.7221C155.914 57.9908 154.877 59.4216 154.051 60.974C153.051 62.8413 152.375 64.8642 152.05 66.9573C151.916 67.8278 151.849 68.7071 151.849 69.5878C151.847 70.9746 151.927 72.3602 152.09 73.7374C152.33 75.7873 152.777 77.8077 153.423 79.7677C154.414 82.7522 155.888 85.5537 157.787 88.06C158.849 89.4613 160.026 90.7715 161.305 91.9768V91.9768Z" stroke="#190000" stroke-width="2.15141" stroke-linecap="round" stroke-linejoin="round"/>
<path d="M30.1866 272.251L39.125 280.851C40.0671 281.758 40.6373 282.898 40.4167 284.236L38.344 296.812C38.154 297.904 38.4917 299.021 39.2548 299.825C40.3539 301.012 42.1167 301.304 43.5397 300.535L50.6041 296.762L54.7823 294.531C56.7361 293.487 58.5095 294.722 60.2353 295.615L69.4191 300.367C72.0427 301.724 75.0842 299.484 74.5659 296.576L74.2845 294.997L72.656 285.86C72.3395 284.084 71.8908 282.292 73.334 280.867L75.5238 278.704L82.4028 271.911C82.7848 271.538 83.078 271.083 83.2605 270.581C83.9368 268.705 82.9025 266.48 80.8303 265.933C80.6848 265.895 80.5371 265.865 80.388 265.845L73.786 264.929L67.7633 264.094C66.6013 263.933 65.593 263.21 65.0671 262.162L59.6828 251.429L59.3521 250.77C58.2819 248.636 55.6107 248.243 53.9437 249.572C53.527 249.906 53.1908 250.329 52.9601 250.811L48.7379 259.508L47.3939 262.277C46.5081 264.102 44.6672 264.253 42.8839 264.524L33.7076 265.918L32.1223 266.159C29.2017 266.603 28.0579 270.203 30.1866 272.251Z" fill="#FBD164"/>
<path fill-rule="evenodd" clip-rule="evenodd" d="M30.1866 272.251L39.125 280.851C40.0671 281.758 40.6373 282.898 40.4167 284.236L38.344 296.812C38.154 297.904 38.4917 299.021 39.2548 299.825C40.3539 301.012 42.1167 301.304 43.5397 300.535L50.6041 296.762L54.7823 294.531C56.7361 293.487 58.5095 294.722 60.2353 295.615L69.4191 300.367C72.0427 301.724 75.0842 299.484 74.5659 296.576L74.2845 294.997L72.656 285.86C72.3395 284.084 71.8908 282.292 73.334 280.867L75.5238 278.704L82.4028 271.911C82.7848 271.538 83.078 271.083 83.2605 270.581C83.9368 268.705 82.9025 266.48 80.8303 265.933C80.6848 265.895 80.5371 265.865 80.388 265.845L73.786 264.929L67.7633 264.094C66.6013 263.933 65.593 263.21 65.0671 262.162L59.6828 251.429L59.3521 250.77C58.2819 248.636 55.6107 248.243 53.9437 249.572C53.527 249.906 53.1908 250.329 52.9601 250.811L48.7379 259.508L47.3939 262.277C46.5081 264.102 44.6672 264.253 42.8839 264.524L33.7076 265.918L32.1223 266.159C29.2017 266.603 28.0579 270.203 30.1866 272.251Z" stroke="#190000" stroke-width="2.15141" stroke-linecap="round" stroke-linejoin="round"/>
<path d="M564.188 100.015L566.313 102.14L568.645 104.472L571.176 107.003C572.96 108.787 575.853 108.787 577.638 107.003L580.156 104.485L582.102 102.538L584.626 100.015H613.186C618.565 100.015 622.926 95.6545 622.926 90.2753V47.1694C622.926 41.7902 618.565 37.4295 613.186 37.4295H535.628C533.044 37.4268 530.565 38.4521 528.737 40.2793C526.91 42.1064 525.885 44.5854 525.888 47.1694V90.2752C525.888 95.6544 530.248 100.015 535.628 100.015L564.188 100.015Z" fill="#9879C9"/>
<path fill-rule="evenodd" clip-rule="evenodd" d="M564.188 100.015L566.313 102.14L568.645 104.472L571.176 107.003C572.96 108.787 575.853 108.787 577.638 107.003L580.156 104.485L582.102 102.538L584.626 100.015H613.186C618.565 100.015 622.926 95.6545 622.926 90.2753V47.1694C622.926 41.7902 618.565 37.4295 613.186 37.4295H535.628C533.044 37.4268 530.565 38.4521 528.737 40.2793C526.91 42.1064 525.885 44.5854 525.888 47.1694V90.2752C525.888 95.6544 530.248 100.015 535.628 100.015L564.188 100.015Z" stroke="#190000" stroke-width="2.15141" stroke-linecap="round" stroke-linejoin="round"/>
<circle cx="602.931" cy="232.83" r="20.2357" fill="#FACCC4" stroke="#190000" stroke-width="2.15141" stroke-linecap="round" stroke-linejoin="round"/>
<circle cx="313.47" cy="423.089" r="28.7448" fill="#399FE8" stroke="#190000" stroke-width="2.15141" stroke-linecap="round" stroke-linejoin="round"/>
<path d="M557.347 66.3482L562.955 71.7437C563.546 72.3124 563.904 73.0279 563.766 73.8673L562.465 81.7572C562.346 82.4424 562.558 83.1435 563.037 83.6479C563.726 84.3923 564.832 84.5755 565.725 84.0933L570.157 81.7262L572.778 80.3262C574.004 79.6716 575.117 80.4459 576.199 81.0061L581.961 83.9875C583.607 84.8392 585.515 83.4338 585.19 81.6093L585.014 80.6189L583.992 74.886C583.793 73.7719 583.512 72.6478 584.417 71.7536L585.791 70.3969L590.107 66.1349C590.347 65.9007 590.531 65.6155 590.645 65.3006C591.069 64.1233 590.42 62.7277 589.12 62.3845C589.029 62.3604 588.936 62.3419 588.843 62.329L584.701 61.7546L580.922 61.2306C580.193 61.1296 579.561 60.6762 579.231 60.0184L575.853 53.2845L575.645 52.8709C574.974 51.5326 573.298 51.2856 572.252 52.1193C571.991 52.329 571.78 52.5948 571.635 52.8971L568.986 58.3536L568.143 60.0906C567.587 61.2353 566.432 61.3301 565.313 61.5001L559.556 62.3749L558.562 62.5261C556.729 62.8046 556.012 65.0632 557.347 66.3482Z" fill="#FBD164"/>
<path fill-rule="evenodd" clip-rule="evenodd" d="M557.347 66.3482L562.955 71.7437C563.546 72.3124 563.904 73.0279 563.766 73.8673L562.465 81.7572C562.346 82.4424 562.558 83.1435 563.037 83.6479C563.726 84.3922 564.832 84.5755 565.725 84.0933L570.157 81.7262L572.778 80.3262C574.004 79.6716 575.117 80.4459 576.199 81.0061L581.961 83.9875C583.607 84.8392 585.515 83.4338 585.19 81.6093L585.014 80.6189L583.992 74.886C583.793 73.7719 583.512 72.6478 584.417 71.7536L585.791 70.3969L590.107 66.1349C590.347 65.9007 590.531 65.6155 590.645 65.3006C591.069 64.1233 590.42 62.7277 589.12 62.3845C589.029 62.3604 588.936 62.3419 588.843 62.329L584.701 61.7546L580.922 61.2306C580.193 61.1296 579.561 60.6762 579.231 60.0184L575.853 53.2845L575.645 52.8709C574.974 51.5326 573.298 51.2856 572.252 52.1193C571.991 52.329 571.78 52.5948 571.635 52.8971L568.986 58.3536L568.143 60.0906C567.587 61.2353 566.432 61.3301 565.313 61.5001L559.556 62.3749L558.562 62.5261C556.729 62.8046 556.012 65.0632 557.347 66.3482Z" stroke="#190000" stroke-width="2.15141" stroke-linecap="round" stroke-linejoin="round"/>
</svg>
