<svg width="61" height="60" viewBox="0 0 61 60" fill="none" xmlns="http://www.w3.org/2000/svg">
<rect x="0.076416" width="60" height="60" rx="8" fill="#F2F2C2"/>
<path d="M40.0764 40H20.0764C19.546 40 19.0373 39.7893 18.6622 39.4142C18.2871 39.0391 18.0764 38.5304 18.0764 38V24C18.0764 23.4696 18.2871 22.9609 18.6622 22.5858C19.0373 22.2107 19.546 22 20.0764 22H24.0764L26.0764 19H34.0764L36.0764 22H40.0764C40.6068 22 41.1156 22.2107 41.4906 22.5858C41.8657 22.9609 42.0764 23.4696 42.0764 24V38C42.0764 38.5304 41.8657 39.0391 41.4906 39.4142C41.1156 39.7893 40.6068 40 40.0764 40Z" stroke="#1F1F1F" stroke-linecap="round" stroke-linejoin="round"/>
<path d="M30.0764 35C32.5617 35 34.5764 32.9853 34.5764 30.5C34.5764 28.0147 32.5617 26 30.0764 26C27.5911 26 25.5764 28.0147 25.5764 30.5C25.5764 32.9853 27.5911 35 30.0764 35Z" stroke="#1F1F1F" stroke-linecap="round" stroke-linejoin="round"/>
</svg>
