<svg width="61" height="60" viewBox="0 0 61 60" fill="none" xmlns="http://www.w3.org/2000/svg">
<rect x="0.0761719" width="60" height="60" rx="8" fill="#D5BDD4"/>
<path d="M39.0762 21H21.0762C19.4193 21 18.0762 22.3431 18.0762 24V38C18.0762 39.6569 19.4193 41 21.0762 41H39.0762C40.733 41 42.0762 39.6569 42.0762 38V24C42.0762 22.3431 40.733 21 39.0762 21Z" stroke="#1F1F1F" stroke-linecap="round" stroke-linejoin="round"/>
<path d="M34.5762 32H25.5762C24.1955 32 23.0762 33.1193 23.0762 34.5C23.0762 35.8807 24.1955 37 25.5762 37H34.5762C35.9569 37 37.0762 35.8807 37.0762 34.5C37.0762 33.1193 35.9569 32 34.5762 32Z" stroke="#1F1F1F" stroke-linecap="round" stroke-linejoin="round"/>
<path d="M32.5762 32V37" stroke="#1F1F1F" stroke-linecap="round" stroke-linejoin="round"/>
<path d="M27.5762 32V37" stroke="#1F1F1F" stroke-linecap="round" stroke-linejoin="round"/>
<path d="M30.0762 21V16" stroke="#1F1F1F" stroke-linecap="round" stroke-linejoin="round"/>
<path d="M24.5762 28.5C25.1285 28.5 25.5762 28.0523 25.5762 27.5C25.5762 26.9477 25.1285 26.5 24.5762 26.5C24.0239 26.5 23.5762 26.9477 23.5762 27.5C23.5762 28.0523 24.0239 28.5 24.5762 28.5Z" fill="#1F1F1F"/>
<path d="M35.5762 28.5C36.1285 28.5 36.5762 28.0523 36.5762 27.5C36.5762 26.9477 36.1285 26.5 35.5762 26.5C35.0239 26.5 34.5762 26.9477 34.5762 27.5C34.5762 28.0523 35.0239 28.5 35.5762 28.5Z" fill="#1F1F1F"/>
</svg>
