<svg width="53" height="53" viewBox="0 0 53 53" fill="none" xmlns="http://www.w3.org/2000/svg">
<rect x="0.431152" y="0.28009" width="52" height="52" rx="26" fill="#F6EAC2"/>
<path d="M35.1812 35.0301H17.6812C17.217 35.0301 16.7719 34.8457 16.4437 34.5175C16.1155 34.1893 15.9312 33.7442 15.9312 33.2801V21.0301C15.9312 20.566 16.1155 20.1208 16.4437 19.7927C16.7719 19.4645 17.217 19.2801 17.6812 19.2801H21.1812L22.9312 16.6551H29.9312L31.6812 19.2801H35.1812C35.6453 19.2801 36.0904 19.4645 36.4186 19.7927C36.7468 20.1208 36.9312 20.566 36.9312 21.0301V33.2801C36.9312 33.7442 36.7468 34.1893 36.4186 34.5175C36.0904 34.8457 35.6453 35.0301 35.1812 35.0301Z" stroke="#31475F" stroke-linecap="round" stroke-linejoin="round"/>
<path d="M26.4312 30.6551C28.6058 30.6551 30.3687 28.8922 30.3687 26.7176C30.3687 24.543 28.6058 22.7801 26.4312 22.7801C24.2565 22.7801 22.4937 24.543 22.4937 26.7176C22.4937 28.8922 24.2565 30.6551 26.4312 30.6551Z" stroke="#31475F" stroke-linecap="round" stroke-linejoin="round"/>
</svg>
