<svg width="260" height="378" viewBox="0 0 260 378" fill="none" xmlns="http://www.w3.org/2000/svg">
<circle cx="28.3776" cy="89.7841" r="27.1205" fill="#FBD164" stroke="#190000" stroke-width="1.1" stroke-linecap="round" stroke-linejoin="round"/>
<path d="M27.2419 258.689C32.8326 264.273 40.6999 266.944 48.5351 265.918C56.3702 264.892 63.2845 260.286 67.249 253.45C68.7649 250.839 69.8008 247.978 70.3075 245.002C70.5492 243.581 70.6703 242.142 70.6698 240.7C70.6766 234.881 68.6817 229.236 65.0197 224.713C59.7795 218.237 51.7023 214.735 43.3935 215.336C35.0847 215.937 27.5957 220.565 23.3421 227.728C21.0106 231.653 19.7836 236.135 19.7908 240.7C19.7902 242.142 19.9114 243.581 20.153 245.002C20.6598 247.978 21.6956 250.839 23.2116 253.45C24.3224 255.364 25.6772 257.124 27.2419 258.689Z" fill="#FBD164" stroke="#190000" stroke-width="1.1" stroke-linecap="round" stroke-linejoin="round"/>
<path d="M92.4535 313.11L97.2593 318.194L102.533 323.774L108.257 329.829C112.292 334.099 118.834 334.099 122.87 329.829L128.564 323.805L132.966 319.147L138.673 313.11H203.262C209.104 313.11 214.707 310.655 218.838 306.284C222.969 301.914 225.289 295.986 225.289 289.806L225.289 238.11C225.289 225.239 215.427 214.806 203.262 214.806H27.8638C22.02 214.799 16.4138 217.252 12.2816 221.624C8.14945 225.996 5.83075 231.927 5.83693 238.11L5.83693 289.806C5.83684 295.986 8.15749 301.914 12.2884 306.284C16.4192 310.655 22.0219 313.11 27.8638 313.11L92.4535 313.11Z" fill="#9879C9"/>
<path fill-rule="evenodd" clip-rule="evenodd" d="M92.4535 314.305L97.2593 319.11L102.533 324.384L108.257 330.108C112.292 334.143 118.834 334.143 122.87 330.108L128.564 324.413L132.966 320.011L138.673 314.305H203.262C209.104 314.305 214.707 311.984 218.838 307.853C222.969 303.722 225.289 298.12 225.289 292.278V236.653C225.289 224.488 215.427 214.626 203.262 214.626H27.8638C22.02 214.62 16.4138 216.939 12.2816 221.071C8.14945 225.203 5.83075 230.809 5.83693 236.653V292.278C5.83684 298.12 8.15749 303.722 12.2884 307.853C16.4192 311.984 22.0219 314.305 27.8638 314.305L92.4535 314.305Z" stroke="#190000" stroke-width="1.1" stroke-linecap="round" stroke-linejoin="round"/>
<path d="M67.6924 289.873L64.7899 345.522C54.6396 366.547 36.8995 365.136 42.5909 376.779C42.5909 376.779 79.1052 352.469 82.6435 350.635C84.9647 349.433 84.8997 297.152 84.8997 297.152L67.6924 289.873Z" fill="#FACCC4"/>
<mask id="mask0_323_4927" style="mask-type:luminance" maskUnits="userSpaceOnUse" x="41" y="289" width="44" height="88">
<path fill-rule="evenodd" clip-rule="evenodd" d="M67.6924 289.873L64.7899 345.522C54.6396 366.547 36.8995 365.136 42.5909 376.779C42.5909 376.779 79.1052 352.469 82.6435 350.635C84.9647 349.433 84.8997 297.152 84.8997 297.152L67.6924 289.873Z" fill="white"/>
</mask>
<g mask="url(#mask0_323_4927)">
<path d="M63.195 311.607C54.261 322.043 83.8106 325.15 84.2318 336.87C84.6529 348.59 88.4977 318.015 88.4977 318.015L63.195 311.607Z" fill="#ED707B"/>
</g>
<path fill-rule="evenodd" clip-rule="evenodd" d="M67.6924 289.873L64.7899 345.522C54.6396 366.547 36.8995 365.136 42.5909 376.779C42.5909 376.779 79.1052 352.469 82.6435 350.635C84.9647 349.433 84.8997 297.152 84.8997 297.152L67.6924 289.873Z" stroke="#190000" stroke-width="1.1" stroke-linecap="round" stroke-linejoin="round"/>
<path d="M72.4252 169.512L39.4896 214.461C19.474 226.481 5.41115 215.575 3.78784 228.433C3.78784 228.433 47.6535 228.119 51.6178 228.526C54.2184 228.792 82.8255 185.033 82.8255 185.033L72.4252 169.512Z" fill="#FACCC4"/>
<mask id="mask1_323_4927" style="mask-type:luminance" maskUnits="userSpaceOnUse" x="3" y="169" width="80" height="60">
<path fill-rule="evenodd" clip-rule="evenodd" d="M72.4252 169.512L39.4896 214.461C19.474 226.481 5.41115 215.575 3.78784 228.433C3.78784 228.433 47.6535 228.119 51.6178 228.526C54.2184 228.792 82.8255 185.033 82.8255 185.033L72.4252 169.512Z" fill="white"/>
</mask>
<g mask="url(#mask1_323_4927)">
<path d="M60.3737 219.919L45.6929 202.35L60.945 201.445L63.2305 214.396L60.3737 219.919Z" fill="#ED707B"/>
<path d="M45.6929 202.35C37.7834 208.531 59.095 216.641 53.7486 226.684C48.4023 236.726 65.9783 225.741 65.9783 225.741L62.3166 204.704L52.064 199.019" fill="#ED707B"/>
</g>
<path fill-rule="evenodd" clip-rule="evenodd" d="M72.4252 169.512L39.4896 214.461C19.474 226.481 5.41115 215.575 3.78784 228.433C3.78784 228.433 47.6535 228.119 51.6178 228.526C54.2184 228.792 82.8255 185.033 82.8255 185.033L72.4252 169.512Z" stroke="#190000" stroke-width="1.1" stroke-linecap="round" stroke-linejoin="round"/>
<path d="M41.4905 198.855C44.4432 216.531 77.0516 228.433 77.0516 228.433L102.806 176.991L144.45 227.457L175.613 196.558C175.613 196.558 105.366 134.274 94.6822 134.963C83.9981 135.652 41.4905 198.855 41.4905 198.855Z" fill="#516DDB"/>
<mask id="mask2_323_4927" style="mask-type:luminance" maskUnits="userSpaceOnUse" x="41" y="134" width="135" height="95">
<path fill-rule="evenodd" clip-rule="evenodd" d="M41.4905 198.855C44.4432 216.531 77.0516 228.433 77.0516 228.433L102.806 176.991L144.45 227.457L175.613 196.558C175.613 196.558 105.366 134.274 94.6822 134.963C83.9981 135.652 41.4905 198.855 41.4905 198.855Z" fill="white"/>
</mask>
<g mask="url(#mask2_323_4927)">
<ellipse cx="95.4037" cy="135.109" rx="12.5778" ry="8.12823" fill="#3152BA"/>
<path d="M47.7184 176.562C41.4904 198.855 67.9041 213.887 87.5291 218.093L47.7184 176.562Z" fill="#516DDB"/>
<path d="M47.7184 176.562C41.4904 198.855 67.9041 213.887 87.5291 218.093" stroke="#190000" stroke-width="1.1" stroke-linecap="round" stroke-linejoin="round"/>
<path d="M66.2725 209.915L93.5085 163.727C94.4657 162.104 96.1063 161.001 97.9708 160.728C99.8352 160.455 101.723 161.041 103.105 162.322L148.273 204.168" stroke="#11314B" stroke-width="1.1" stroke-linecap="round" stroke-linejoin="round"/>
<path d="M105.042 181.695C119.2 198.131 147.936 187.712 147.936 187.712L136.161 203.318L118.499 204.159" fill="#3152BA"/>
</g>
<path fill-rule="evenodd" clip-rule="evenodd" d="M41.4905 198.855C44.4432 216.531 77.0516 228.433 77.0516 228.433L102.806 176.991L144.45 227.457L175.613 196.558C175.613 196.558 105.366 134.274 94.6822 134.963C83.9981 135.652 41.4905 198.855 41.4905 198.855Z" stroke="#190000" stroke-width="1.1" stroke-linecap="round" stroke-linejoin="round"/>
<path d="M145.871 188.572C118.361 206.384 69.7955 238.188 66.842 242.618C62.7072 248.82 53.7483 310.843 53.7483 310.843C69.5986 324.626 92.0046 329.113 92.0046 329.113L95.786 259.157C95.786 259.157 202.886 240.607 196.891 197.852C196.891 197.852 178.982 180.697 164.51 176.562" fill="#516DDB"/>
<mask id="mask3_323_4927" style="mask-type:luminance" maskUnits="userSpaceOnUse" x="53" y="176" width="145" height="154">
<path fill-rule="evenodd" clip-rule="evenodd" d="M145.871 188.572C118.361 206.384 69.7955 238.188 66.842 242.618C62.7072 248.82 53.7483 310.843 53.7483 310.843C69.5986 324.626 92.0046 329.113 92.0046 329.113L95.786 259.157C95.786 259.157 202.886 240.607 196.891 197.852C196.891 197.852 178.982 180.697 164.51 176.562" fill="white"/>
</mask>
<g mask="url(#mask3_323_4927)">
<path d="M156.471 146.661C144.479 210.557 219.291 206.723 143.491 248.298C67.6921 289.873 232.363 267.85 232.363 267.85L256.935 164.233L237.162 155.995" fill="#3152BA"/>
<ellipse cx="66.022" cy="242.843" rx="13.414" ry="8.48968" transform="rotate(-38.3287 66.022 242.843)" fill="#3152BA"/>
<path d="M46.0355 289.873C43.2319 305.284 93.1355 319.862 104.35 318.18" stroke="#11314B" stroke-width="1.1" stroke-linecap="round" stroke-linejoin="round"/>
<path d="M75.1934 311.948L82.3126 256.811C82.6182 254.42 84.3204 252.441 86.6394 251.781C104.347 246.739 178.054 224.173 186.855 195.579" stroke="#11314B" stroke-width="1.1" stroke-linecap="round" stroke-linejoin="round"/>
</g>
<path d="M145.871 188.572C118.361 206.384 69.7955 238.188 66.842 242.618C62.7072 248.82 53.7483 310.843 53.7483 310.843C69.5986 324.626 92.0046 329.113 92.0046 329.113L95.786 259.157C95.786 259.157 202.886 240.607 196.891 197.852C196.891 197.852 178.982 180.697 164.51 176.562" stroke="#190000" stroke-width="1.1" stroke-linecap="round" stroke-linejoin="round"/>
<path d="M181.182 0.717865L107.981 105.792L122.45 126.981L259.422 123.313L181.182 0.717865Z" fill="url(#paint0_linear_323_4927)"/>
<path d="M179.269 91.9481C184.718 97.5231 184.348 118.238 184.348 118.238L202.688 113.447L196.064 79.5756L179.269 91.9481Z" fill="#FACCC4"/>
<mask id="mask4_323_4927" style="mask-type:luminance" maskUnits="userSpaceOnUse" x="179" y="79" width="24" height="40">
<path fill-rule="evenodd" clip-rule="evenodd" d="M179.269 91.9481C184.718 97.5231 184.348 118.238 184.348 118.238L202.688 113.447L196.064 79.5756L179.269 91.9481Z" fill="white"/>
</mask>
<g mask="url(#mask4_323_4927)">
<path d="M178.803 103.51L189.166 97.2162L178.437 97.1247L178.803 103.51Z" fill="#ED707B"/>
<path d="M177.555 112.869C192.65 111.369 180.291 103.654 189.506 100.668C198.721 97.6833 180.939 97.2939 180.939 97.2939L178.733 101.836" fill="#ED707B"/>
</g>
<path fill-rule="evenodd" clip-rule="evenodd" d="M179.269 91.9481C184.718 97.5231 184.348 118.238 184.348 118.238L202.688 113.447L196.064 79.5756L179.269 91.9481Z" stroke="#190000" stroke-width="1.1" stroke-linecap="round" stroke-linejoin="round"/>
<path d="M175.737 95.0014C168.731 94.7669 163.357 85.5881 165.52 81.5027C167.682 77.4173 174.619 73.8968 172.012 70.0599C169.405 66.223 185.366 66.9574 185.366 66.9574L190.075 73.0682L185.934 87.8028L175.737 95.0014Z" fill="#4B4D5C" stroke="#190000" stroke-width="1.1" stroke-linecap="round" stroke-linejoin="round"/>
<path d="M177.64 70.5535C171.799 78.0329 160.555 112.874 187.897 100.956C192.325 99.0261 193.117 101.418 193.117 101.418L197.323 78.1195L177.64 70.5535Z" fill="#FACCC4" stroke="#190000" stroke-width="1.1" stroke-linecap="round" stroke-linejoin="round"/>
<path d="M175.536 87.3807C174.866 87.1392 174.519 86.4006 174.761 85.731L175.499 83.6833C175.741 83.0137 176.479 82.6667 177.149 82.9082C177.818 83.1497 178.166 83.8882 177.924 84.5579L177.186 86.6056C176.944 87.2752 176.205 87.6222 175.536 87.3807Z" fill="#190000"/>
<path d="M176.759 78.9275C180.479 80.0859 180.747 81.898 178.374 81.3256C176.001 80.7532 174.327 78.1707 176.759 78.9275Z" fill="#190000"/>
<path d="M172.998 83.1647C168.428 84.0042 167.925 89.3205 171.709 89.3177L172.998 83.1647Z" fill="#FACCC4"/>
<path d="M172.998 83.1647C168.428 84.0042 167.925 89.3205 171.709 89.3177" stroke="#190000" stroke-width="1.1" stroke-linecap="round" stroke-linejoin="round"/>
<circle opacity="0.4" cx="183.795" cy="90.8475" r="4.32862" fill="#ED707B"/>
<path d="M177.095 91.4767C176.623 91.908 176.059 92.2251 175.445 92.4034" stroke="#993443" stroke-width="1.1" stroke-linecap="round" stroke-linejoin="round"/>
<path d="M192.593 91.2518C192.919 90.8696 193.444 90.7224 193.922 90.8792C194.399 91.036 194.735 91.4657 194.771 91.967C194.808 92.4683 194.538 92.9419 194.088 93.166" stroke="#190000" stroke-width="1.1" stroke-linecap="round" stroke-linejoin="round"/>
<ellipse cx="195.62" cy="85.495" rx="3.61813" ry="2.80228" transform="rotate(-84.9885 195.62 85.495)" fill="#459BF2"/>
<path d="M120.27 118.249C124.289 123.656 130.478 131.385 130.219 136.943C130.202 137.308 130.16 137.672 130.092 138.031C128.987 143.802 142.679 166.557 142.679 166.557L172.772 130.637L196.892 138.26C196.892 138.26 169.306 165.893 150.791 184.067C143.544 191.179 131.297 187.325 129.434 177.343C126.337 160.755 123.009 140.962 123.009 140.962C123.009 140.962 116.256 127.836 116.071 127.221C115.885 126.606 117.041 118.884 117.899 119.119C118.757 119.354 118.201 121.141 118.201 121.141C118.201 121.141 120.195 126.625 121.056 126.82C121.917 127.016 119.823 120.845 119.645 120.15C119.466 119.456 120.27 118.249 120.27 118.249Z" fill="#FACCC4"/>
<mask id="mask5_323_4927" style="mask-type:luminance" maskUnits="userSpaceOnUse" x="116" y="118" width="81" height="70">
<path fill-rule="evenodd" clip-rule="evenodd" d="M120.27 118.249C124.289 123.656 130.478 131.385 130.219 136.943C130.202 137.308 130.16 137.672 130.092 138.031C128.987 143.802 142.679 166.557 142.679 166.557L172.772 130.637L196.892 138.26C196.892 138.26 169.306 165.893 150.791 184.067C143.544 191.179 131.297 187.325 129.434 177.343C126.337 160.755 123.009 140.962 123.009 140.962C123.009 140.962 116.256 127.836 116.071 127.221C115.885 126.606 117.041 118.884 117.899 119.119C118.757 119.354 118.201 121.141 118.201 121.141C118.201 121.141 120.195 126.625 121.056 126.82C121.917 127.016 119.823 120.845 119.645 120.15C119.466 119.456 120.27 118.249 120.27 118.249Z" fill="white"/>
</mask>
<g mask="url(#mask5_323_4927)">
<path d="M147.324 148.95C160.303 149.209 153.554 185.031 153.554 185.031L166.197 168.854L170.323 144.537L157.708 141.743" fill="#ED707B"/>
</g>
<path fill-rule="evenodd" clip-rule="evenodd" d="M120.27 118.249C124.289 123.656 130.478 131.385 130.219 136.943C130.202 137.308 130.16 137.672 130.092 138.031C128.987 143.802 142.679 166.557 142.679 166.557L172.772 130.637L196.892 138.26C196.892 138.26 169.306 165.893 150.791 184.067C143.544 191.179 131.297 187.325 129.434 177.343C126.337 160.755 123.009 140.962 123.009 140.962C123.009 140.962 116.256 127.836 116.071 127.221C115.885 126.606 117.041 118.884 117.899 119.119C118.757 119.354 118.201 121.141 118.201 121.141C118.201 121.141 120.195 126.625 121.056 126.82C121.917 127.016 119.823 120.845 119.645 120.15C119.466 119.456 120.27 118.249 120.27 118.249Z" stroke="#190000" stroke-width="1.1" stroke-linecap="round" stroke-linejoin="round"/>
<path d="M177.717 67.1656C176.56 72.8688 179.938 84.3307 183.005 93.0122C185.256 99.3842 186.529 101.347 186.529 101.347L214.73 102.676C214.73 102.676 213.403 62.5799 177.717 67.1656Z" fill="#4B4D5C" stroke="#190000" stroke-width="1.1" stroke-linecap="round" stroke-linejoin="round"/>
<path d="M201.905 107.485C199.334 109.495 183.067 114.428 182.23 115.18C179.804 117.362 161.389 137.542 159.896 143.638C158.404 149.734 154.876 180.049 154.876 180.049L197.775 200.882C197.775 200.882 206.791 153.738 208.88 151.766C209.74 150.953 207.331 146.878 209.436 144.51L218.835 141.169C218.835 141.169 214.698 124.049 211.375 118.249C208.051 112.449 201.905 107.485 201.905 107.485Z" fill="#9879C9"/>
<mask id="mask6_323_4927" style="mask-type:luminance" maskUnits="userSpaceOnUse" x="154" y="107" width="65" height="94">
<path fill-rule="evenodd" clip-rule="evenodd" d="M201.905 107.485C199.334 109.495 183.067 114.428 182.23 115.18C179.804 117.362 161.389 137.542 159.896 143.638C158.404 149.734 154.876 180.049 154.876 180.049L197.775 200.882C197.775 200.882 206.791 153.738 208.88 151.766C209.74 150.953 207.331 146.878 209.436 144.51L218.835 141.169C218.835 141.169 214.698 124.049 211.375 118.249C208.051 112.449 201.905 107.485 201.905 107.485Z" fill="white"/>
</mask>
<g mask="url(#mask6_323_4927)">
<path d="M205.633 150.392L198.421 147.959C198.421 147.959 209.465 207.303 152.437 176.562C95.4082 145.82 179.251 212.604 179.251 212.604L225.526 227.795L266.036 157.988L230.44 147.137" fill="#6F4EB9"/>
<path d="M170.784 118.238C154.876 136.509 177.851 144.695 202.042 149.181L209.952 167.161C209.952 167.161 162.945 169.512 153.133 141.743C147.973 127.141 170.784 118.238 170.784 118.238Z" fill="#FBD164" stroke="#190000" stroke-width="1.1" stroke-linecap="round" stroke-linejoin="round"/>
</g>
<path fill-rule="evenodd" clip-rule="evenodd" d="M201.905 107.485C199.334 109.495 183.067 114.428 182.23 115.18C179.804 117.362 161.389 137.542 159.896 143.638C158.404 149.734 154.876 180.049 154.876 180.049L197.775 200.882C197.775 200.882 206.791 153.738 208.88 151.766C209.74 150.953 207.331 146.878 209.436 144.51L218.835 141.169C218.835 141.169 214.698 124.049 211.375 118.249C208.051 112.449 201.905 107.485 201.905 107.485Z" stroke="#190000" stroke-width="1.1" stroke-linecap="round" stroke-linejoin="round"/>
<path d="M217.425 141.743L198.421 147.959L209.305 187.712C209.305 187.712 166.457 195.466 161.517 195.991C156.577 196.516 144.141 201.772 143.02 202.272C141.898 202.773 142.085 215.662 142.118 215.964C142.152 216.267 144.608 217.62 146.118 215.417C147.628 213.214 149.836 207.84 150.208 207.693C150.58 207.546 163.093 202.775 163.093 202.775L216.313 203.801C225.303 203.975 232.073 195.671 230.094 186.9L217.425 141.743Z" fill="#FACCC4"/>
<mask id="mask7_323_4927" style="mask-type:luminance" maskUnits="userSpaceOnUse" x="142" y="141" width="89" height="76">
<path fill-rule="evenodd" clip-rule="evenodd" d="M217.425 141.743L198.421 147.959L209.305 187.712C209.305 187.712 166.457 195.466 161.517 195.991C156.577 196.516 144.141 201.772 143.02 202.272C141.898 202.773 142.085 215.662 142.118 215.964C142.152 216.267 144.608 217.62 146.118 215.417C147.628 213.214 149.836 207.84 150.208 207.693C150.58 207.546 163.093 202.775 163.093 202.775L216.313 203.801C225.303 203.975 232.073 195.671 230.094 186.9L217.425 141.743Z" fill="white"/>
</mask>
<g mask="url(#mask7_323_4927)">
<path d="M182.108 146.873C205.633 150.392 216.218 145.33 220.578 152.981C224.938 160.631 225.457 138.307 225.457 138.307L204.951 140.384" fill="#ED707B"/>
</g>
<path fill-rule="evenodd" clip-rule="evenodd" d="M217.425 141.743L198.421 147.959L209.305 187.712C209.305 187.712 166.457 195.466 161.517 195.991C156.577 196.516 144.141 201.772 143.02 202.272C141.898 202.773 142.085 215.662 142.118 215.964C142.152 216.267 144.608 217.62 146.118 215.417C147.628 213.214 149.836 207.84 150.208 207.693C150.58 207.546 163.093 202.775 163.093 202.775L216.313 203.801C225.303 203.975 232.073 195.671 230.094 186.9L217.425 141.743Z" stroke="#190000" stroke-width="1.1" stroke-linecap="round" stroke-linejoin="round"/>
<rect x="123.872" y="126.083" width="2.60414" height="26.5631" rx="0.59533" transform="rotate(147.732 123.872 126.083)" fill="#4B4D5C" stroke="#190000" stroke-width="1.1" stroke-linecap="round" stroke-linejoin="round"/>
<path d="M142.666 166.413V169.778" stroke="#E84B23" stroke-width="1.1" stroke-linecap="round" stroke-linejoin="round"/>
<path d="M171.916 176.319L174.439 176.88" stroke="#6F4EB9" stroke-width="1.1" stroke-linecap="round" stroke-linejoin="round"/>
<path d="M209.765 187.534H213.97" stroke="#E84B23" stroke-width="1.1" stroke-linecap="round" stroke-linejoin="round"/>
<path d="M194.666 79.3254C193.529 84.0634 195.079 89.3531 198.594 92.7278" stroke="#190000" stroke-width="1.1" stroke-linecap="round" stroke-linejoin="round"/>
<path d="M93.4888 257.558C94.2051 258.351 95.1555 258.895 96.2021 259.111" stroke="#11314B" stroke-width="1.1" stroke-linecap="round" stroke-linejoin="round"/>
<path d="M73.769 185.871C74.8499 187.131 76.0834 188.253 77.441 189.209" stroke="#11314B" stroke-width="1.1" stroke-linecap="round" stroke-linejoin="round"/>
<defs>
<linearGradient id="paint0_linear_323_4927" x1="74.2538" y1="153.354" x2="207.479" y2="113.045" gradientUnits="userSpaceOnUse">
<stop offset="0.1011" stop-color="#FFDF94"/>
<stop offset="1" stop-color="#FFA200" stop-opacity="0.01"/>
</linearGradient>
</defs>
</svg>
