<svg width="61" height="60" viewBox="0 0 61 60" fill="none" xmlns="http://www.w3.org/2000/svg">
<rect x="0.0761719" width="60" height="60" rx="8" fill="#ACDEE7"/>
<path d="M21.0762 43H39.0762" stroke="#1F1F1F" stroke-linecap="round" stroke-linejoin="round"/>
<path d="M30.0762 31C32.2853 31 34.0762 29.2091 34.0762 27C34.0762 24.7909 32.2853 23 30.0762 23C27.867 23 26.0762 24.7909 26.0762 27C26.0762 29.2091 27.867 31 30.0762 31Z" stroke="#1F1F1F" stroke-linecap="round" stroke-linejoin="round"/>
<path d="M40.0762 27C40.0762 36 30.0762 43 30.0762 43C30.0762 43 20.0762 36 20.0762 27C20.0762 24.3478 21.1297 21.8043 23.0051 19.9289C24.8805 18.0536 27.424 17 30.0762 17C32.7283 17 35.2719 18.0536 37.1472 19.9289C39.0226 21.8043 40.0762 24.3478 40.0762 27V27Z" stroke="#1F1F1F" stroke-linecap="round" stroke-linejoin="round"/>
</svg>
