<svg width="17" height="18" viewBox="0 0 17 18" fill="none" xmlns="http://www.w3.org/2000/svg">
<path fill-rule="evenodd" clip-rule="evenodd" d="M3.1043 8.55434C3.1043 5.56331 5.52901 3.1386 8.52004 3.1386C11.5111 3.1386 13.9358 5.56331 13.9358 8.55434C13.9358 11.5454 11.5111 13.9701 8.52004 13.9701C5.52901 13.9701 3.1043 11.5454 3.1043 8.55434ZM8.52004 0.938599C4.31398 0.938599 0.904297 4.34828 0.904297 8.55434C0.904297 12.7604 4.31398 16.1701 8.52004 16.1701C10.0244 16.1701 11.4269 15.7339 12.608 14.9811L15.0765 17.4734C15.504 17.905 16.2004 17.9084 16.6321 17.4809C17.0637 17.0533 17.0671 16.3569 16.6396 15.9252L14.2772 13.54C15.4351 12.2041 16.1358 10.461 16.1358 8.55434C16.1358 4.34828 12.7261 0.938599 8.52004 0.938599Z" fill="#737373"/>
</svg>
